<?xml version="1.0" encoding="UTF-8"?>
<!DOCTYPE svg PUBLIC "-//W3C//DTD SVG 1.1//EN" "http://www.w3.org/Graphics/SVG/1.1/DTD/svg11.dtd">
<!-- Creator: CorelDRAW -->
<svg xmlns="http://www.w3.org/2000/svg" xml:space="preserve" width="1372px" height="137px" version="1.1" shape-rendering="geometricPrecision" text-rendering="geometricPrecision" image-rendering="optimizeQuality" fill-rule="evenodd" clip-rule="evenodd"
viewBox="0 0 1370.32 136.57"
 xmlns:xlink="http://www.w3.org/1999/xlink"
 xmlns:xodm="http://www.corel.com/coreldraw/odm/2003">
 <defs>
    <clipPath id="id0">
     <path d="M28.17 40.12l1310.08 0c15.49,0 28.17,12.67 28.17,28.16l0 0c0,15.5 -12.68,28.17 -28.17,28.17l-1310.08 0c-15.5,0 -28.17,-12.67 -28.17,-28.17l0 0c0,-15.49 12.67,-28.16 28.17,-28.16z"/>
    </clipPath>
 </defs>
 <g id="Camada_x0020_1">
  <metadata id="CorelCorpID_0Corel-Layer"/>
  <g id="_2960582232272">
   <path fill="#B3B3B3" d="M28.17 40.12l1310.08 0c15.49,0 28.17,12.67 28.17,28.16l0 0c0,15.5 -12.68,28.17 -28.17,28.17l-1310.08 0c-15.5,0 -28.17,-12.67 -28.17,-28.17l0 0c0,-15.49 12.67,-28.16 28.17,-28.16z"/>
   <g clip-path="url(#id0)">
    <g>
     <rect fill="#00C84E" x="-120.42" y="29.87" width="1414.27" height="76.82"/>
    </g>
   </g>
   <path fill="none" d="M28.17 40.12l1310.08 0c15.49,0 28.17,12.67 28.17,28.16l0 0c0,15.5 -12.68,28.17 -28.17,28.17l-1310.08 0c-15.5,0 -28.17,-12.67 -28.17,-28.17l0 0c0,-15.49 12.67,-28.16 28.17,-28.16z"/>
   <g>
    <polygon fill="#FC6D00" points="1242.23,38.1 1301.85,40.29 1353.7,2.35 1360.52,56.6 1338.61,46.13 1324.73,73.15 1304.04,61.71 1274.34,82.65 1249.51,87.27 1263.87,62.44 "/>
    <path fill="#005582" d="M1317.46 28.87l7.5 -5.49 4.1 14.13c0,0 -6.92,-4.96 -11.6,-8.64zm9.84 -7.2l8.38 -6.13 1.32 20.17 -9.7 -14.04zm11.07 -8.1l15.33 -11.22 4.32 34.38 -13.19 -6.08 -6.46 -17.08zm-88.73 73.47l9.12 -15.76 24.51 -7.83 -6.8 17.7 -26.83 5.89zm13.73 -25.16l-11.32 -12.74c10.6,0.73 30.33,1.71 30.33,1.71l-19.01 11.03z"/>
    <polygon fill="#005582" points="1280.75,32.54 1296.54,51.52 1321.14,49.09 1320.84,38.91 "/>
    <circle fill="#CF0000" cx="1305.49" cy="52.4" r="6.94"/>
    <path fill="#E8D7BC" d="M1281.06 94.05l55.49 40.62 30.92 -32.3 -27.27 0 -0.73 -20.94 -23.62 12.42 -11.88 -9.71c0.4,-1.4 0.62,-2.89 0.62,-4.43 0,-8.9 -7.22,-16.12 -16.13,-16.12 -8.9,0 -16.13,7.22 -16.13,16.12 0,6.24 3.55,11.66 8.73,14.34z"/>
    <polygon fill="#E6BA37" points="1358.11,112.15 1367.47,102.37 1340.2,102.37 1339.47,81.43 1315.85,93.85 1304.42,84.51 1304.29,84.59 1299.38,89.35 1313.93,101.77 1332.42,93.02 1332.22,111.32 "/>
    <path fill="#C2B5A1" d="M1290.17 97.06l5.16 -3.73 7.79 5.49 -5.38 4.49 -7.57 -6.25zm40.82 23.15l8.77 7.13 4.72 -5.37 -8.45 -6.92 -5.04 5.16zm-16.79 -12.07l10.31 9 4.83 -4.94 -9 -8.45 -6.14 4.39z"/>
    <path fill="black" fill-rule="nonzero" d="M1282.01 92.76l54.35 39.8 27.37 -28.59 -24.43 0c-0.37,0 -0.67,-0.3 -0.67,-0.66l-0.67 -19.28 -21.91 11.52c-0.25,0.13 -0.54,0.09 -0.74,-0.09l-10.68 -8.72 -0.37 0.54c-0.3,0.4 -0.61,0.77 -0.95,1.1l-0.04 0.04c-0.89,0.88 -1.95,1.6 -3.13,2.08 -1.16,0.48 -2.42,0.75 -3.74,0.75 -1.32,0 -2.59,-0.27 -3.74,-0.74 -1.2,-0.5 -2.28,-1.23 -3.18,-2.13 -1.77,-1.76 -2.86,-4.21 -2.86,-6.91 0,-1.32 0.26,-2.59 0.74,-3.74l0.02 -0.04c0.49,-1.18 1.21,-2.25 2.1,-3.14l0.54 -0.5c0.27,-0.24 0.69,-0.21 0.93,0.06l0.58 0.81 0.55 0.82c0.18,0.27 0.13,0.63 -0.1,0.84l-0.25 0.23c-0.6,0.61 -1.09,1.34 -1.42,2.14 -0.32,0.77 -0.49,1.62 -0.49,2.52 0,0.9 0.17,1.75 0.49,2.52 0.33,0.8 0.82,1.52 1.43,2.13l0.03 0.04c1.27,1.25 2.95,1.88 4.63,1.88 1.69,0 3.38,-0.64 4.65,-1.92l0.04 -0.03c0.26,-0.26 0.5,-0.55 0.7,-0.85 0.17,-0.23 0.32,-0.48 0.46,-0.75 -0.01,-0.06 0,-0.13 0.02,-0.19l0.18 -0.62c0.09,-0.32 0.17,-0.64 0.23,-0.96 0.07,-0.33 0.13,-0.66 0.18,-0.98 0.04,-0.32 0.08,-0.65 0.1,-1 0.02,-0.32 0.03,-0.67 0.03,-1.03 0,-1.97 -0.39,-3.85 -1.1,-5.56 -0.73,-1.77 -1.81,-3.37 -3.15,-4.71l-0.03 -0.04c-1.34,-1.32 -2.93,-2.39 -4.69,-3.12 -1.71,-0.7 -3.59,-1.09 -5.56,-1.09 -1.97,0 -3.85,0.39 -5.56,1.09 -1.77,0.73 -3.37,1.82 -4.71,3.16l-0.04 0.03c-1.32,1.34 -2.39,2.93 -3.12,4.68 -0.7,1.71 -1.1,3.59 -1.1,5.56 0,1.37 0.19,2.69 0.54,3.93 0.36,1.28 0.89,2.5 1.57,3.62 0.69,1.14 1.54,2.17 2.51,3.08 0.97,0.9 2.06,1.68 3.24,2.29l0.22 0.13zm23.48 -48.9c1.15,0 2.26,0.23 3.26,0.65 1.05,0.43 2,1.07 2.78,1.85l0.04 0.04c0.32,0.33 0.62,0.69 0.89,1.07 0.19,0.26 0.36,0.54 0.52,0.82l6.52 -0.64 -0.22 -7.37 -34.59 -5.5 12.54 15.07 0.12 -0.01c0.18,-0.59 0.42,-1.14 0.72,-1.66 0.38,-0.67 0.85,-1.28 1.38,-1.82l0.04 -0.03c0.78,-0.77 1.71,-1.39 2.74,-1.82 1.01,-0.42 2.11,-0.65 3.26,-0.65zm8.48 7.54l0.02 0.13c0.03,0.3 0.04,0.59 0.04,0.87 0,1.15 -0.23,2.26 -0.65,3.26 -0.43,1.05 -1.07,2 -1.85,2.78 -1.45,1.45 -3.42,2.38 -5.6,2.49l18.14 10.03 13.53 -26.36c0.17,-0.33 0.57,-0.45 0.89,-0.29l20.08 9.59 -6.12 -48.66 -41.87 30.43 11.27 1.79c0.32,0.05 0.55,0.32 0.56,0.64l0.35 11.82c0.01,0.34 -0.25,0.64 -0.59,0.67l-8.2 0.81zm-11.05 9.15c-0.23,-0.08 -0.46,-0.16 -0.69,-0.26 -1.05,-0.43 -1.99,-1.07 -2.78,-1.85l-0.03 -0.04c-0.77,-0.78 -1.4,-1.71 -1.82,-2.73l-0.02 -0.04c-0.32,-0.8 -0.53,-1.66 -0.6,-2.55l-0.77 0.07c-0.24,0.03 -0.46,-0.08 -0.59,-0.26l-9.65 -11.59 -40.06 -1.47 19.6 22.05c0.2,0.23 0.22,0.55 0.07,0.79l-12.96 22.4 18.22 -3.39 -0.06 -0.66c-0.03,-0.44 -0.05,-0.88 -0.05,-1.31 0,-2.39 0.48,-4.68 1.35,-6.77l0.02 -0.04c0.89,-2.16 2.21,-4.1 3.83,-5.72l0.04 -0.04c1.62,-1.61 3.56,-2.92 5.72,-3.81 2.09,-0.87 4.38,-1.34 6.77,-1.34 1.69,0 3.32,0.23 4.86,0.67l0.04 0.01c1.44,0.41 2.8,1.01 4.07,1.75l5.49 -3.87zm6.35 -11.93c-0.49,-0.49 -1.08,-0.89 -1.73,-1.16 -0.63,-0.26 -1.32,-0.4 -2.05,-0.4 -0.73,0 -1.42,0.14 -2.04,0.4 -0.66,0.27 -1.25,0.67 -1.74,1.16 -0.49,0.49 -0.89,1.08 -1.16,1.73 -0.26,0.63 -0.4,1.32 -0.4,2.05 0,0.73 0.14,1.42 0.4,2.04 0.27,0.65 0.67,1.25 1.16,1.74l0.04 0.04c0.48,0.47 1.06,0.86 1.7,1.12l0.03 0.01c0.61,0.25 1.29,0.39 2.01,0.39 0.73,0 1.42,-0.14 2.04,-0.4 0.65,-0.27 1.25,-0.67 1.74,-1.16 0.96,-0.97 1.56,-2.3 1.56,-3.78 0,-0.73 -0.14,-1.42 -0.4,-2.05 -0.27,-0.65 -0.66,-1.24 -1.16,-1.73zm-26.04 -10.61l-5.29 -6.36c-0.23,-0.28 -0.2,-0.7 0.08,-0.93 0.15,-0.13 0.35,-0.17 0.53,-0.15l27.82 4.43 47.67 -34.87c0.3,-0.22 0.71,-0.15 0.93,0.14 0.06,0.09 0.1,0.2 0.12,0.31l7.23 57.52c0.04,0.36 -0.22,0.69 -0.58,0.74 -0.15,0.01 -0.29,-0.02 -0.41,-0.09l-22.01 -10.51 -13.61 26.5c-0.17,0.32 -0.57,0.45 -0.89,0.28l-20.68 -11.43 -3.98 2.81 0.1 0.09c0.27,0.23 0.51,0.46 0.74,0.69l0.03 0.04c1.62,1.62 2.92,3.56 3.82,5.72 0.86,2.09 1.34,4.38 1.34,6.77l-0.03 0.94 -0.04 0.63c0.04,0.09 0.06,0.2 0.05,0.3 0,0.43 -0.03,0.85 -0.09,1.26 -0.04,0.28 -0.09,0.56 -0.16,0.84l10.12 8.27 24 -12.62c0.32,-0.17 0.72,-0.05 0.89,0.27 0.06,0.1 0.08,0.21 0.08,0.32l0.73 20.85 27.92 0c0.36,0 0.66,0.3 0.66,0.66 0,0.2 -0.09,0.38 -0.24,0.51l-32.95 34.42c-0.23,0.25 -0.6,0.27 -0.87,0.08l-56.05 -41.04c-1.42,-0.75 -2.71,-1.67 -3.87,-2.75 -1.16,-1.1 -2.19,-2.36 -3.03,-3.73 -0.44,-0.73 -0.83,-1.49 -1.17,-2.28l-0.01 -0.04c-0.25,-0.59 -0.47,-1.19 -0.65,-1.8l-23.68 4.41c-0.36,0.07 -0.7,-0.17 -0.77,-0.53 -0.03,-0.16 0,-0.32 0.08,-0.45l14.8 -25.59 -22.33 -25.12c-0.24,-0.27 -0.21,-0.69 0.06,-0.93 0.13,-0.12 0.31,-0.18 0.48,-0.17l43.11 1.59z"/>
   </g>
  </g>
 </g>
</svg>
