<?xml version="1.0" encoding="UTF-8"?>
<!DOCTYPE svg PUBLIC "-//W3C//DTD SVG 1.1//EN" "http://www.w3.org/Graphics/SVG/1.1/DTD/svg11.dtd">
<!-- Creator: CorelDRAW -->
<svg xmlns="http://www.w3.org/2000/svg" xml:space="preserve" width="1392px" height="137px" version="1.1" shape-rendering="geometricPrecision" text-rendering="geometricPrecision" image-rendering="optimizeQuality" fill-rule="evenodd" clip-rule="evenodd"
viewBox="0 0 1390.32 136.6"
 xmlns:xlink="http://www.w3.org/1999/xlink"
 xmlns:xodm="http://www.corel.com/coreldraw/odm/2003">
 <defs>
    <clipPath id="id0">
     <path d="M51.73 40.13l1310.41 0c15.5,0 28.18,12.67 28.18,28.17l0 0c0,15.5 -12.68,28.18 -28.18,28.18l-1310.41 0c-15.5,0 -28.18,-12.68 -28.18,-28.18l0 0c0,-15.5 12.68,-28.17 28.18,-28.17z"/>
    </clipPath>
 </defs>
 <g id="Camada_x0020_1">
  <metadata id="CorelCorpID_0Corel-Layer"/>
  <g id="_2960582244320">
   <path fill="#B3B3B3" d="M51.73 40.13l1310.41 0c15.5,0 28.18,12.67 28.18,28.17l0 0c0,15.5 -12.68,28.18 -28.18,28.18l-1310.41 0c-15.5,0 -28.18,-12.68 -28.18,-28.18l0 0c0,-15.5 12.68,-28.17 28.18,-28.17z"/>
   <g clip-path="url(#id0)">
    <g>
     <rect fill="#00C84E" x="-96.9" y="29.88" width="153.56" height="76.84"/>
    </g>
   </g>
   <path fill="none" d="M51.73 40.13l1310.41 0c15.5,0 28.18,12.67 28.18,28.17l0 0c0,15.5 -12.68,28.18 -28.18,28.18l-1310.41 0c-15.5,0 -28.18,-12.68 -28.18,-28.18l0 0c0,-15.5 12.68,-28.17 28.18,-28.17z"/>
   <g>
    <polygon fill="#FC6D00" points="2.81,38.11 62.45,40.3 114.31,2.35 121.13,56.61 99.22,46.14 85.34,73.17 64.64,61.73 34.93,82.67 10.09,87.29 24.46,62.46 "/>
    <path fill="#005582" d="M78.06 28.88l7.51 -5.5 4.09 14.14c0,0 -6.91,-4.96 -11.6,-8.64zm9.84 -7.21l8.39 -6.13 1.32 20.18 -9.71 -14.05zm11.08 -8.1l15.33 -11.22 4.32 34.39 -13.19 -6.08 -6.46 -17.09zm-88.75 73.49l9.12 -15.77 24.52 -7.82 -6.81 17.7 -26.83 5.89zm13.73 -25.17l-11.32 -12.74c10.6,0.74 30.33,1.72 30.33,1.72l-19.01 11.02z"/>
    <polygon fill="#005582" points="41.34,32.54 57.14,51.53 81.75,49.1 81.44,38.92 "/>
    <circle fill="#CF0000" cx="66.09" cy="52.41" r="6.94"/>
    <path fill="#E8D7BC" d="M41.66 94.07l55.49 40.63 30.93 -32.3 -27.27 0 -0.73 -20.95 -23.62 12.42 -11.89 -9.7c0.41,-1.41 0.62,-2.9 0.62,-4.44 0,-8.91 -7.22,-16.13 -16.13,-16.13 -8.91,0 -16.13,7.22 -16.13,16.13 0,6.25 3.54,11.66 8.73,14.34z"/>
    <polygon fill="#E6BA37" points="118.72,112.18 128.08,102.4 100.81,102.4 100.08,81.45 76.46,93.87 65.02,84.54 64.89,84.61 59.98,89.37 74.53,101.8 93.03,93.05 92.83,111.34 "/>
    <path fill="#C2B5A1" d="M50.77 97.08l5.16 -3.73 7.79 5.49 -5.38 4.5 -7.57 -6.26zm40.82 23.16l8.78 7.13 4.72 -5.37 -8.45 -6.92 -5.05 5.16zm-16.79 -12.07l10.32 9 4.83 -4.94 -9 -8.45 -6.15 4.39z"/>
    <path fill="black" fill-rule="nonzero" d="M42.6 92.78l54.37 39.81 27.37 -28.6 -24.43 0c-0.37,0 -0.67,-0.29 -0.67,-0.66l-0.67 -19.28 -21.92 11.52c-0.25,0.13 -0.54,0.09 -0.74,-0.09l-10.68 -8.72 -0.37 0.54c-0.3,0.4 -0.61,0.77 -0.95,1.1l-0.04 0.04c-0.89,0.88 -1.95,1.6 -3.13,2.09 -1.16,0.48 -2.42,0.74 -3.75,0.74 -1.31,0 -2.58,-0.26 -3.73,-0.74 -1.21,-0.5 -2.29,-1.23 -3.18,-2.12 -1.77,-1.77 -2.87,-4.22 -2.87,-6.92 0,-1.32 0.27,-2.59 0.75,-3.74l0.01 -0.04c0.5,-1.19 1.22,-2.25 2.11,-3.14l0.54 -0.5c0.27,-0.24 0.69,-0.21 0.93,0.06l0.58 0.81 0.55 0.82c0.18,0.27 0.12,0.63 -0.1,0.84l-0.25 0.23c-0.6,0.61 -1.09,1.34 -1.42,2.14 -0.32,0.77 -0.5,1.62 -0.5,2.52 0,0.9 0.18,1.75 0.5,2.52 0.33,0.8 0.82,1.52 1.43,2.13l0.03 0.04c1.27,1.25 2.95,1.88 4.62,1.88 1.69,0 3.38,-0.64 4.66,-1.92l0.04 -0.03c0.26,-0.26 0.5,-0.55 0.7,-0.84 0.17,-0.24 0.32,-0.49 0.45,-0.76 0,-0.06 0.01,-0.13 0.03,-0.19l0.18 -0.62c0.09,-0.32 0.17,-0.64 0.23,-0.96 0.07,-0.32 0.13,-0.66 0.18,-0.98 0.04,-0.32 0.08,-0.65 0.1,-1 0.02,-0.32 0.03,-0.66 0.03,-1.03 0,-1.97 -0.39,-3.85 -1.1,-5.56 -0.73,-1.77 -1.81,-3.37 -3.15,-4.71l-0.03 -0.04c-1.34,-1.32 -2.93,-2.39 -4.69,-3.12 -1.71,-0.71 -3.59,-1.1 -5.56,-1.1 -1.98,0 -3.86,0.39 -5.57,1.1 -1.77,0.73 -3.37,1.81 -4.71,3.15l-0.03 0.04c-1.33,1.33 -2.4,2.92 -3.13,4.68 -0.7,1.71 -1.09,3.59 -1.09,5.56 0,1.37 0.18,2.69 0.53,3.93 0.36,1.29 0.89,2.5 1.57,3.62 0.7,1.14 1.55,2.18 2.51,3.08 0.97,0.91 2.07,1.68 3.25,2.29l0.21 0.13zm23.49 -48.91c1.15,0 2.26,0.23 3.27,0.65 1.05,0.43 1.99,1.07 2.77,1.85l0.04 0.04c0.32,0.33 0.62,0.69 0.89,1.07 0.19,0.26 0.36,0.54 0.52,0.83l6.53 -0.65 -0.22 -7.37 -34.61 -5.51 12.54 15.08 0.12 -0.01c0.19,-0.58 0.43,-1.14 0.73,-1.66 0.38,-0.67 0.84,-1.28 1.38,-1.81l0.04 -0.04c0.78,-0.77 1.71,-1.39 2.74,-1.82 1.01,-0.42 2.11,-0.65 3.26,-0.65zm8.48 7.54l0.02 0.14c0.03,0.3 0.05,0.59 0.05,0.86 0,1.16 -0.24,2.26 -0.65,3.27 -0.44,1.05 -1.07,1.99 -1.86,2.78 -1.45,1.44 -3.42,2.38 -5.6,2.49l18.14 10.03 13.54 -26.37c0.17,-0.33 0.57,-0.45 0.89,-0.29l20.08 9.6 -6.11 -48.68 -41.89 30.44 11.28 1.79c0.32,0.05 0.54,0.32 0.55,0.64l0.36 11.82c0.01,0.35 -0.26,0.64 -0.6,0.67l-8.2 0.81zm-11.05 9.15c-0.23,-0.07 -0.47,-0.16 -0.69,-0.25 -1.05,-0.44 -1.99,-1.07 -2.78,-1.86l-0.03 -0.03c-0.77,-0.78 -1.4,-1.71 -1.82,-2.74l-0.02 -0.04c-0.32,-0.8 -0.53,-1.65 -0.61,-2.55l-0.76 0.08c-0.24,0.02 -0.46,-0.09 -0.6,-0.27l-9.65 -11.59 -40.07 -1.47 19.61 22.06c0.2,0.22 0.22,0.54 0.07,0.78l-12.96 22.41 18.23 -3.39 -0.07 -0.66c-0.03,-0.44 -0.04,-0.88 -0.04,-1.31 0,-2.39 0.47,-4.68 1.34,-6.78l0.02 -0.03c0.9,-2.16 2.21,-4.1 3.83,-5.72l0.04 -0.04c1.63,-1.62 3.57,-2.92 5.72,-3.81 2.09,-0.87 4.38,-1.35 6.78,-1.35 1.68,0 3.31,0.24 4.86,0.68l0.03 0.01c1.45,0.41 2.81,1 4.08,1.75l5.49 -3.88zm6.36 -11.92c-0.5,-0.5 -1.09,-0.9 -1.74,-1.17 -0.63,-0.26 -1.32,-0.4 -2.05,-0.4 -0.73,0 -1.42,0.14 -2.04,0.4 -0.66,0.27 -1.25,0.67 -1.74,1.16 -0.49,0.5 -0.89,1.09 -1.16,1.73 -0.26,0.63 -0.4,1.32 -0.4,2.05 0,0.73 0.14,1.42 0.4,2.05 0.27,0.65 0.67,1.24 1.16,1.73l0.04 0.04c0.48,0.48 1.06,0.86 1.69,1.13l0.04 0.01c0.61,0.25 1.29,0.39 2.01,0.39 0.73,0 1.42,-0.15 2.04,-0.4 0.66,-0.27 1.25,-0.67 1.74,-1.17 0.97,-0.96 1.57,-2.3 1.57,-3.78 0,-0.73 -0.15,-1.42 -0.41,-2.05 -0.27,-0.65 -0.66,-1.23 -1.15,-1.72zm-26.05 -10.62l-5.3 -6.37c-0.23,-0.28 -0.19,-0.69 0.09,-0.92 0.15,-0.13 0.34,-0.18 0.52,-0.15l27.83 4.43 47.68 -34.88c0.3,-0.22 0.71,-0.15 0.93,0.14 0.07,0.09 0.11,0.2 0.12,0.31l7.23 57.53c0.04,0.37 -0.21,0.7 -0.58,0.74 -0.14,0.02 -0.28,-0.01 -0.4,-0.08l-22.02 -10.52 -13.62 26.51c-0.16,0.32 -0.56,0.45 -0.88,0.28l-20.69 -11.43 -3.98 2.8 0.1 0.09c0.26,0.24 0.51,0.47 0.74,0.7l0.03 0.04c1.62,1.62 2.92,3.56 3.82,5.72 0.86,2.09 1.34,4.38 1.34,6.77l-0.03 0.94 -0.04 0.63c0.04,0.09 0.06,0.2 0.05,0.31 0,0.42 -0.03,0.84 -0.09,1.25 -0.04,0.28 -0.09,0.56 -0.16,0.84l10.13 8.27 24 -12.62c0.32,-0.17 0.72,-0.05 0.89,0.27 0.06,0.1 0.08,0.21 0.08,0.32l0.73 20.86 27.92 0c0.37,0 0.67,0.29 0.67,0.66 0,0.2 -0.09,0.38 -0.24,0.5l-32.96 34.44c-0.23,0.24 -0.6,0.27 -0.87,0.07l-56.07 -41.05c-1.41,-0.74 -2.71,-1.67 -3.86,-2.75 -1.17,-1.1 -2.2,-2.35 -3.03,-3.73 -0.45,-0.72 -0.84,-1.49 -1.18,-2.28l-0.01 -0.04c-0.25,-0.58 -0.46,-1.19 -0.65,-1.8l-23.69 4.41c-0.35,0.07 -0.7,-0.17 -0.76,-0.53 -0.03,-0.16 0,-0.31 0.07,-0.45l14.81 -25.59 -22.33 -25.13c-0.25,-0.27 -0.22,-0.69 0.05,-0.93 0.14,-0.12 0.31,-0.18 0.48,-0.17l43.13 1.59z"/>
   </g>
  </g>
 </g>
</svg>
