<?xml version="1.0" encoding="UTF-8"?>
<!DOCTYPE svg PUBLIC "-//W3C//DTD SVG 1.1//EN" "http://www.w3.org/Graphics/SVG/1.1/DTD/svg11.dtd">
<!-- Creator: CorelDRAW -->
<svg xmlns="http://www.w3.org/2000/svg" xml:space="preserve" width="1369px" height="137px" version="1.1" shape-rendering="geometricPrecision" text-rendering="geometricPrecision" image-rendering="optimizeQuality" fill-rule="evenodd" clip-rule="evenodd"
viewBox="0 0 1367.32 136.66"
 xmlns:xlink="http://www.w3.org/1999/xlink"
 xmlns:xodm="http://www.corel.com/coreldraw/odm/2003">
 <defs>
    <clipPath id="id0">
     <path d="M28.19 40.14l1310.94 0c15.51,0 28.19,12.69 28.19,28.19l0 0c0,15.5 -12.68,28.18 -28.19,28.18l-1310.94 0c-15.51,0 -28.19,-12.68 -28.19,-28.18l0 0c0,-15.5 12.68,-28.19 28.19,-28.19z"/>
    </clipPath>
 </defs>
 <g id="Camada_x0020_1">
  <metadata id="CorelCorpID_0Corel-Layer"/>
  <g id="_2960578527872">
   <path fill="#B3B3B3" d="M28.19 40.14l1310.94 0c15.51,0 28.19,12.69 28.19,28.19l0 0c0,15.5 -12.68,28.18 -28.19,28.18l-1310.94 0c-15.51,0 -28.19,-12.68 -28.19,-28.18l0 0c0,-15.5 12.68,-28.19 28.19,-28.19z"/>
   <g clip-path="url(#id0)">
    <g>
     <rect fill="#00C84E" x="-120.5" y="29.89" width="714.86" height="76.87"/>
    </g>
   </g>
   <path fill="none" d="M28.19 40.14l1310.94 0c15.51,0 28.19,12.69 28.19,28.19l0 0c0,15.5 -12.68,28.18 -28.19,28.18l-1310.94 0c-15.51,0 -28.19,-12.68 -28.19,-28.18l0 0c0,-15.5 12.68,-28.19 28.19,-28.19z"/>
   <g>
    <polygon fill="#FC6D00" points="540.94,38.12 600.6,40.31 652.49,2.36 659.31,56.63 637.38,46.16 623.5,73.2 602.79,61.75 573.07,82.7 548.22,87.33 562.59,62.48 "/>
    <path fill="#005582" d="M616.22 28.89l7.51 -5.5 4.09 14.15c0,0 -6.91,-4.97 -11.6,-8.65zm9.84 -7.21l8.39 -6.13 1.33 20.18 -9.72 -14.05zm11.09 -8.11l15.34 -11.21 4.32 34.39 -13.2 -6.08 -6.46 -17.1zm-88.79 73.53l9.12 -15.78 24.53 -7.83 -6.81 17.71 -26.84 5.9zm13.73 -25.18l-11.32 -12.75c10.61,0.74 30.35,1.72 30.35,1.72l-19.03 11.03z"/>
    <polygon fill="#005582" points="579.49,32.56 595.29,51.55 619.9,49.12 619.6,38.94 "/>
    <circle fill="#CF0000" cx="604.24" cy="52.44" r="6.95"/>
    <path fill="#E8D7BC" d="M579.8 94.11l55.52 40.65 30.94 -32.32 -27.29 0 -0.73 -20.95 -23.63 12.42 -11.89 -9.71c0.41,-1.41 0.62,-2.9 0.62,-4.43 0,-8.92 -7.22,-16.14 -16.14,-16.14 -8.91,0 -16.14,7.22 -16.14,16.14 0,6.24 3.55,11.66 8.74,14.34z"/>
    <polygon fill="#E6BA37" points="656.89,112.22 666.26,102.44 638.97,102.44 638.24,81.49 614.61,93.91 603.18,84.57 603.04,84.64 598.13,89.4 612.69,101.84 631.19,93.08 630.99,111.39 "/>
    <path fill="#C2B5A1" d="M588.91 97.12l5.16 -3.73 7.8 5.49 -5.38 4.5 -7.58 -6.26zm40.85 23.17l8.78 7.14 4.72 -5.38 -8.45 -6.92 -5.05 5.16zm-16.8 -12.08l10.32 9.01 4.83 -4.94 -9 -8.46 -6.15 4.39z"/>
    <path fill="black" fill-rule="nonzero" d="M580.74 92.82l54.39 39.82 27.39 -28.6 -24.45 0c-0.36,0 -0.66,-0.3 -0.66,-0.66l-0.67 -19.3 -21.93 11.53c-0.25,0.13 -0.55,0.09 -0.74,-0.09l-10.69 -8.72 -0.37 0.54c-0.29,0.39 -0.61,0.76 -0.95,1.1l-0.03 0.03c-0.9,0.89 -1.96,1.61 -3.14,2.09 -1.16,0.48 -2.43,0.75 -3.75,0.75 -1.32,0 -2.58,-0.27 -3.74,-0.74 -1.2,-0.5 -2.28,-1.23 -3.18,-2.13 -1.77,-1.77 -2.86,-4.22 -2.86,-6.92 0,-1.32 0.26,-2.59 0.74,-3.74l0.02 -0.04c0.49,-1.18 1.21,-2.25 2.1,-3.14l0.54 -0.5c0.28,-0.24 0.69,-0.21 0.94,0.06l0.58 0.81 0.55 0.82c0.17,0.27 0.12,0.63 -0.11,0.84l-0.24 0.23c-0.61,0.61 -1.1,1.34 -1.43,2.14 -0.32,0.77 -0.49,1.62 -0.49,2.52 0,0.9 0.17,1.75 0.49,2.52 0.33,0.8 0.83,1.53 1.44,2.14l0.03 0.03c1.27,1.26 2.94,1.89 4.62,1.89 1.69,0 3.38,-0.64 4.66,-1.92l0.04 -0.04c0.26,-0.26 0.5,-0.54 0.7,-0.84 0.17,-0.23 0.32,-0.49 0.46,-0.75 -0.01,-0.07 0,-0.13 0.02,-0.2l0.18 -0.62c0.09,-0.32 0.17,-0.64 0.23,-0.95 0.07,-0.33 0.13,-0.66 0.18,-0.99 0.04,-0.32 0.08,-0.65 0.1,-1 0.02,-0.32 0.03,-0.66 0.03,-1.02 0,-1.98 -0.39,-3.86 -1.1,-5.57 -0.73,-1.77 -1.81,-3.37 -3.15,-4.71l-0.04 -0.04c-1.33,-1.32 -2.92,-2.39 -4.68,-3.12 -1.71,-0.71 -3.59,-1.1 -5.57,-1.1 -1.97,0 -3.85,0.39 -5.56,1.1 -1.77,0.73 -3.37,1.81 -4.72,3.15l-0.03 0.04c-1.33,1.33 -2.4,2.92 -3.13,4.68 -0.7,1.71 -1.09,3.59 -1.09,5.57 0,1.36 0.18,2.68 0.53,3.93 0.36,1.28 0.89,2.5 1.57,3.61 0.7,1.14 1.55,2.18 2.52,3.09 0.96,0.9 2.06,1.68 3.24,2.29l0.21 0.13zm23.5 -48.93c1.15,0 2.26,0.23 3.27,0.65 1.05,0.43 1.99,1.07 2.78,1.85l0.03 0.04c0.33,0.33 0.63,0.69 0.9,1.07 0.18,0.26 0.36,0.54 0.51,0.82l6.54 -0.64 -0.22 -7.37 -34.63 -5.51 12.55 15.08 0.12 -0.01c0.19,-0.58 0.43,-1.14 0.73,-1.66 0.38,-0.67 0.84,-1.28 1.38,-1.81l0.04 -0.04c0.78,-0.77 1.71,-1.39 2.74,-1.82 1.01,-0.42 2.11,-0.65 3.26,-0.65zm8.49 7.54l0.01 0.14c0.03,0.3 0.05,0.59 0.05,0.87 0,1.15 -0.23,2.25 -0.65,3.26 -0.43,1.05 -1.07,2 -1.85,2.78 -1.45,1.45 -3.42,2.38 -5.61,2.49l18.15 10.04 13.55 -26.38c0.16,-0.33 0.56,-0.46 0.88,-0.29l20.09 9.6 -6.11 -48.7 -41.91 30.45 11.29 1.8c0.31,0.05 0.54,0.32 0.55,0.63l0.35 11.83c0.01,0.35 -0.25,0.64 -0.59,0.67l-8.2 0.81zm-11.06 9.16c-0.23,-0.08 -0.46,-0.16 -0.69,-0.26 -1.05,-0.43 -1.99,-1.07 -2.78,-1.85l-0.03 -0.04c-0.77,-0.78 -1.4,-1.71 -1.82,-2.73l-0.02 -0.04c-0.33,-0.8 -0.54,-1.66 -0.61,-2.56l-0.77 0.08c-0.23,0.02 -0.46,-0.09 -0.59,-0.26l-9.65 -11.6 -40.09 -1.48 19.62 22.08c0.2,0.22 0.22,0.54 0.07,0.78l-12.97 22.42 18.23 -3.4 -0.06 -0.66c-0.03,-0.44 -0.05,-0.88 -0.05,-1.3 0,-2.4 0.48,-4.69 1.35,-6.79l0.02 -0.03c0.9,-2.16 2.21,-4.11 3.83,-5.73l0.04 -0.03c1.63,-1.62 3.57,-2.92 5.73,-3.82 2.09,-0.86 4.38,-1.34 6.77,-1.34 1.69,0 3.32,0.23 4.87,0.67l0.03 0.01c1.44,0.42 2.81,1.01 4.08,1.75l5.49 -3.87zm6.36 -11.93c-0.5,-0.5 -1.09,-0.9 -1.74,-1.17 -0.63,-0.26 -1.32,-0.4 -2.05,-0.4 -0.73,0 -1.42,0.14 -2.04,0.4 -0.66,0.27 -1.25,0.67 -1.74,1.16 -0.49,0.5 -0.89,1.09 -1.16,1.74 -0.26,0.62 -0.4,1.31 -0.4,2.05 0,0.72 0.14,1.41 0.4,2.04 0.27,0.65 0.67,1.24 1.16,1.74l0.04 0.03c0.48,0.48 1.06,0.87 1.7,1.13l0.03 0.01c0.61,0.25 1.3,0.39 2.01,0.39 0.73,0 1.42,-0.14 2.05,-0.4 0.65,-0.27 1.24,-0.67 1.73,-1.16 0.97,-0.97 1.57,-2.31 1.57,-3.78 0,-0.74 -0.14,-1.43 -0.4,-2.05 -0.27,-0.66 -0.67,-1.24 -1.16,-1.73zm-26.06 -10.63l-5.3 -6.36c-0.23,-0.28 -0.19,-0.7 0.09,-0.93 0.15,-0.13 0.34,-0.17 0.52,-0.15l27.84 4.43 47.71 -34.89c0.29,-0.22 0.71,-0.15 0.92,0.14 0.07,0.09 0.11,0.2 0.12,0.31l7.24 57.56c0.04,0.36 -0.22,0.69 -0.58,0.73 -0.15,0.02 -0.29,-0.01 -0.41,-0.08l-22.03 -10.52 -13.62 26.52c-0.16,0.32 -0.56,0.45 -0.88,0.28l-20.7 -11.44 -3.98 2.81 0.1 0.09c0.26,0.23 0.51,0.47 0.74,0.69l0.03 0.04c1.62,1.63 2.92,3.57 3.82,5.73 0.86,2.09 1.34,4.38 1.34,6.78l-0.02 0.93 -0.05 0.63c0.04,0.1 0.06,0.2 0.06,0.31 -0.01,0.43 -0.04,0.85 -0.1,1.25 -0.04,0.29 -0.09,0.57 -0.15,0.84l10.12 8.28 24.02 -12.63c0.32,-0.17 0.72,-0.05 0.89,0.28 0.05,0.1 0.08,0.21 0.08,0.31l0.72 20.87 27.94 0c0.37,0 0.66,0.29 0.66,0.66 0,0.2 -0.09,0.38 -0.23,0.5l-32.98 34.45c-0.23,0.25 -0.6,0.27 -0.86,0.08l-56.1 -41.07c-1.41,-0.74 -2.71,-1.67 -3.86,-2.75 -1.17,-1.1 -2.2,-2.36 -3.03,-3.73 -0.45,-0.73 -0.84,-1.49 -1.18,-2.29l-0.01 -0.03c-0.25,-0.59 -0.47,-1.19 -0.65,-1.8l-23.7 4.41c-0.36,0.07 -0.7,-0.17 -0.76,-0.53 -0.03,-0.16 0,-0.32 0.07,-0.45l14.81 -25.61 -22.34 -25.13c-0.24,-0.28 -0.22,-0.69 0.06,-0.94 0.13,-0.12 0.31,-0.17 0.48,-0.16l43.14 1.58z"/>
   </g>
  </g>
 </g>
</svg>
