<?xml version="1.0" encoding="UTF-8"?>
<!DOCTYPE svg PUBLIC "-//W3C//DTD SVG 1.1//EN" "http://www.w3.org/Graphics/SVG/1.1/DTD/svg11.dtd">
<!-- Creator: CorelDRAW -->
<svg xmlns="http://www.w3.org/2000/svg" xml:space="preserve" width="1369px" height="137px" version="1.1" shape-rendering="geometricPrecision" text-rendering="geometricPrecision" image-rendering="optimizeQuality" fill-rule="evenodd" clip-rule="evenodd"
viewBox="0 0 1367.32 136.66"
 xmlns:xlink="http://www.w3.org/1999/xlink"
 xmlns:xodm="http://www.corel.com/coreldraw/odm/2003">
 <defs>
    <clipPath id="id0">
     <path d="M28.19 40.14l1310.94 0c15.51,0 28.19,12.69 28.19,28.19l0 0c0,15.5 -12.68,28.18 -28.19,28.18l-1310.94 0c-15.51,0 -28.19,-12.68 -28.19,-28.18l0 0c0,-15.5 12.68,-28.19 28.19,-28.19z"/>
    </clipPath>
 </defs>
 <g id="Camada_x0020_1">
  <metadata id="CorelCorpID_0Corel-Layer"/>
  <g id="_2960582390752">
   <path fill="#B3B3B3" d="M28.19 40.14l1310.94 0c15.51,0 28.19,12.69 28.19,28.19l0 0c0,15.5 -12.68,28.18 -28.19,28.18l-1310.94 0c-15.51,0 -28.19,-12.68 -28.19,-28.18l0 0c0,-15.5 12.68,-28.19 28.19,-28.19z"/>
   <g clip-path="url(#id0)">
    <g>
     <rect fill="#00C84E" x="-120.5" y="29.89" width="851.64" height="76.87"/>
    </g>
   </g>
   <path fill="none" d="M28.19 40.14l1310.94 0c15.51,0 28.19,12.69 28.19,28.19l0 0c0,15.5 -12.68,28.18 -28.19,28.18l-1310.94 0c-15.51,0 -28.19,-12.68 -28.19,-28.18l0 0c0,-15.5 12.68,-28.19 28.19,-28.19z"/>
   <g>
    <polygon fill="#FC6D00" points="681.36,38.12 741.02,40.31 792.91,2.36 799.73,56.63 777.8,46.16 763.92,73.2 743.21,61.75 713.49,82.7 688.64,87.33 703.02,62.48 "/>
    <path fill="#005582" d="M756.64 28.89l7.51 -5.5 4.09 14.15c0,0 -6.91,-4.97 -11.6,-8.65zm9.85 -7.21l8.38 -6.13 1.33 20.18 -9.71 -14.05zm11.08 -8.11l15.34 -11.21 4.32 34.39 -13.2 -6.08 -6.46 -17.1zm-88.79 73.53l9.12 -15.78 24.53 -7.83 -6.81 17.71 -26.84 5.9zm13.73 -25.18l-11.32 -12.75c10.61,0.74 30.35,1.72 30.35,1.72l-19.03 11.03z"/>
    <polygon fill="#005582" points="719.91,32.56 735.71,51.55 760.33,49.12 760.02,38.94 "/>
    <circle fill="#CF0000" cx="744.67" cy="52.44" r="6.95"/>
    <path fill="#E8D7BC" d="M720.22 94.11l55.52 40.65 30.94 -32.32 -27.28 0 -0.73 -20.95 -23.64 12.42 -11.88 -9.71c0.4,-1.41 0.62,-2.9 0.62,-4.43 0,-8.92 -7.23,-16.14 -16.14,-16.14 -8.92,0 -16.14,7.22 -16.14,16.14 0,6.24 3.54,11.66 8.73,14.34z"/>
    <polygon fill="#E6BA37" points="797.31,112.22 806.68,102.44 779.4,102.44 778.67,81.49 755.03,93.91 743.6,84.57 743.47,84.64 738.55,89.4 753.11,101.84 771.61,93.08 771.42,111.39 "/>
    <path fill="#C2B5A1" d="M729.34 97.12l5.16 -3.73 7.79 5.49 -5.38 4.5 -7.57 -6.26zm40.84 23.17l8.78 7.14 4.72 -5.38 -8.45 -6.92 -5.05 5.16zm-16.8 -12.08l10.32 9.01 4.83 -4.94 -9 -8.46 -6.15 4.39z"/>
    <path fill="black" fill-rule="nonzero" d="M721.16 92.82l54.4 39.82 27.38 -28.6 -24.45 0c-0.36,0 -0.66,-0.3 -0.66,-0.66l-0.67 -19.3 -21.93 11.53c-0.25,0.13 -0.54,0.09 -0.74,-0.09l-10.69 -8.72 -0.37 0.54c-0.29,0.39 -0.61,0.76 -0.94,1.1l-0.04 0.03c-0.9,0.89 -1.96,1.61 -3.14,2.09 -1.16,0.48 -2.42,0.75 -3.74,0.75 -1.32,0 -2.59,-0.27 -3.74,-0.74 -1.21,-0.5 -2.29,-1.23 -3.19,-2.13 -1.76,-1.77 -2.86,-4.22 -2.86,-6.92 0,-1.32 0.26,-2.59 0.74,-3.74l0.02 -0.04c0.49,-1.18 1.22,-2.25 2.1,-3.14l0.55 -0.5c0.27,-0.24 0.69,-0.21 0.93,0.06l0.58 0.81 0.55 0.82c0.17,0.27 0.12,0.63 -0.11,0.84l-0.24 0.23c-0.61,0.61 -1.09,1.34 -1.43,2.14 -0.31,0.77 -0.49,1.62 -0.49,2.52 0,0.9 0.18,1.75 0.5,2.52 0.33,0.8 0.82,1.53 1.43,2.14l0.03 0.03c1.27,1.26 2.95,1.89 4.63,1.89 1.68,0 3.38,-0.64 4.65,-1.92l0.04 -0.04c0.26,-0.26 0.5,-0.54 0.71,-0.84 0.16,-0.23 0.31,-0.49 0.45,-0.75 0,-0.07 0,-0.13 0.02,-0.2l0.18 -0.62c0.09,-0.32 0.17,-0.64 0.23,-0.95 0.07,-0.33 0.13,-0.66 0.18,-0.99 0.04,-0.32 0.08,-0.65 0.1,-1 0.02,-0.32 0.03,-0.66 0.03,-1.02 0,-1.98 -0.39,-3.86 -1.09,-5.57 -0.74,-1.77 -1.82,-3.37 -3.16,-4.71l-0.03 -0.04c-1.34,-1.32 -2.93,-2.39 -4.69,-3.12 -1.71,-0.71 -3.59,-1.1 -5.56,-1.1 -1.98,0 -3.86,0.39 -5.57,1.1 -1.77,0.73 -3.37,1.81 -4.71,3.15l-0.04 0.04c-1.32,1.33 -2.39,2.92 -3.12,4.68 -0.71,1.71 -1.1,3.59 -1.1,5.57 0,1.36 0.18,2.68 0.53,3.93 0.36,1.28 0.89,2.5 1.57,3.61 0.7,1.14 1.55,2.18 2.52,3.09 0.96,0.9 2.06,1.68 3.24,2.29l0.21 0.13zm23.51 -48.93c1.15,0 2.25,0.23 3.26,0.65 1.05,0.43 2,1.07 2.78,1.85l0.04 0.04c0.32,0.33 0.62,0.69 0.89,1.07 0.19,0.26 0.36,0.54 0.52,0.82l6.53 -0.64 -0.22 -7.37 -34.62 -5.51 12.54 15.08 0.12 -0.01c0.19,-0.58 0.43,-1.14 0.73,-1.66 0.38,-0.67 0.85,-1.28 1.38,-1.81l0.04 -0.04c0.78,-0.77 1.71,-1.39 2.74,-1.82 1.01,-0.42 2.11,-0.65 3.27,-0.65zm8.48 7.54l0.02 0.14c0.03,0.3 0.04,0.59 0.04,0.87 0,1.15 -0.23,2.25 -0.65,3.26 -0.43,1.05 -1.07,2 -1.85,2.78 -1.45,1.45 -3.42,2.38 -5.61,2.49l18.15 10.04 13.55 -26.38c0.16,-0.33 0.56,-0.46 0.89,-0.29l20.09 9.6 -6.12 -48.7 -41.9 30.45 11.28 1.8c0.32,0.05 0.54,0.32 0.55,0.63l0.36 11.83c0.01,0.35 -0.26,0.64 -0.6,0.67l-8.2 0.81zm-11.05 9.16c-0.24,-0.08 -0.47,-0.16 -0.7,-0.26 -1.05,-0.43 -1.99,-1.07 -2.78,-1.85l-0.03 -0.04c-0.77,-0.78 -1.4,-1.71 -1.82,-2.73l-0.02 -0.04c-0.32,-0.8 -0.53,-1.66 -0.61,-2.56l-0.76 0.08c-0.24,0.02 -0.46,-0.09 -0.6,-0.26l-9.65 -11.6 -40.09 -1.48 19.62 22.08c0.2,0.22 0.22,0.54 0.07,0.78l-12.97 22.42 18.24 -3.4 -0.06 -0.66c-0.04,-0.44 -0.05,-0.88 -0.05,-1.3 0,-2.4 0.47,-4.69 1.34,-6.79l0.02 -0.03c0.9,-2.16 2.21,-4.11 3.83,-5.73l0.04 -0.03c1.63,-1.62 3.57,-2.92 5.73,-3.82 2.09,-0.86 4.38,-1.34 6.78,-1.34 1.68,0 3.31,0.23 4.86,0.67l0.03 0.01c1.44,0.42 2.81,1.01 4.08,1.75l5.5 -3.87zm6.35 -11.93c-0.49,-0.5 -1.09,-0.9 -1.74,-1.17 -0.62,-0.26 -1.32,-0.4 -2.04,-0.4 -0.73,0 -1.43,0.14 -2.05,0.4 -0.66,0.27 -1.25,0.67 -1.74,1.16 -0.49,0.5 -0.89,1.09 -1.16,1.74 -0.26,0.62 -0.4,1.31 -0.4,2.05 0,0.72 0.14,1.41 0.4,2.04 0.27,0.65 0.67,1.24 1.16,1.74l0.04 0.03c0.48,0.48 1.06,0.87 1.7,1.13l0.03 0.01c0.62,0.25 1.3,0.39 2.02,0.39 0.72,0 1.42,-0.14 2.04,-0.4 0.65,-0.27 1.24,-0.67 1.74,-1.16 0.96,-0.97 1.56,-2.31 1.56,-3.78 0,-0.74 -0.14,-1.43 -0.4,-2.05 -0.27,-0.66 -0.67,-1.24 -1.16,-1.73zm-26.06 -10.63l-5.3 -6.36c-0.23,-0.28 -0.19,-0.7 0.09,-0.93 0.15,-0.13 0.34,-0.17 0.52,-0.15l27.85 4.43 47.7 -34.89c0.29,-0.22 0.71,-0.15 0.92,0.14 0.07,0.09 0.11,0.2 0.12,0.31l7.24 57.56c0.04,0.36 -0.22,0.69 -0.58,0.73 -0.15,0.02 -0.29,-0.01 -0.41,-0.08l-22.03 -10.52 -13.61 26.52c-0.17,0.32 -0.57,0.45 -0.89,0.28l-20.7 -11.44 -3.98 2.81 0.1 0.09c0.27,0.23 0.51,0.47 0.74,0.69l0.04 0.04c1.61,1.63 2.92,3.57 3.81,5.73 0.87,2.09 1.35,4.38 1.35,6.78l-0.03 0.93 -0.05 0.63c0.04,0.1 0.06,0.2 0.06,0.31 -0.01,0.43 -0.04,0.85 -0.1,1.25 -0.04,0.29 -0.09,0.57 -0.15,0.84l10.12 8.28 24.02 -12.63c0.32,-0.17 0.72,-0.05 0.89,0.28 0.06,0.1 0.08,0.21 0.08,0.31l0.73 20.87 27.93 0c0.37,0 0.67,0.29 0.67,0.66 0,0.2 -0.09,0.38 -0.24,0.5l-32.98 34.45c-0.23,0.25 -0.6,0.27 -0.86,0.08l-56.09 -41.07c-1.42,-0.74 -2.72,-1.67 -3.87,-2.75 -1.17,-1.1 -2.19,-2.36 -3.03,-3.73 -0.44,-0.73 -0.84,-1.49 -1.18,-2.29l-0.01 -0.03c-0.25,-0.59 -0.46,-1.19 -0.65,-1.8l-23.69 4.41c-0.36,0.07 -0.71,-0.17 -0.77,-0.53 -0.03,-0.16 0,-0.32 0.08,-0.45l14.81 -25.61 -22.35 -25.13c-0.24,-0.28 -0.21,-0.69 0.06,-0.94 0.14,-0.12 0.31,-0.17 0.48,-0.16l43.14 1.58z"/>
   </g>
  </g>
 </g>
</svg>
