<?xml version="1.0" encoding="UTF-8"?>
<!DOCTYPE svg PUBLIC "-//W3C//DTD SVG 1.1//EN" "http://www.w3.org/Graphics/SVG/1.1/DTD/svg11.dtd">
<!-- Creator: CorelDRAW -->
<svg xmlns="http://www.w3.org/2000/svg" xml:space="preserve" width="1369px" height="104px" version="1.1" shape-rendering="geometricPrecision" text-rendering="geometricPrecision" image-rendering="optimizeQuality" fill-rule="evenodd" clip-rule="evenodd"
viewBox="0 0 1367.32 104.15"
 xmlns:xlink="http://www.w3.org/1999/xlink"
 xmlns:xodm="http://www.corel.com/coreldraw/odm/2003">
 <defs>
    <clipPath id="id0">
     <path d="M36.27 15.81l1294.78 0c19.95,0 36.27,16.32 36.27,36.27l0 0c0,19.94 -16.32,36.26 -36.27,36.26l-1294.78 0c-19.95,0 -36.27,-16.32 -36.27,-36.26l0 0c0,-19.95 16.32,-36.27 36.27,-36.27z"/>
    </clipPath>
 </defs>
 <g id="Camada_x0020_1">
  <metadata id="CorelCorpID_0Corel-Layer"/>
  <g id="_2489278483440">
   <path fill="#B3B3B3" d="M36.27 15.81l1294.78 0c19.95,0 36.27,16.32 36.27,36.27l0 0c0,19.94 -16.32,36.26 -36.27,36.26l-1294.78 0c-19.95,0 -36.27,-16.32 -36.27,-36.26l0 0c0,-19.95 16.32,-36.27 36.27,-36.27z"/>
   <g clip-path="url(#id0)">
    <g>
     <rect fill="#00C84E" x="-120.5" y="2.62" width="1025.28" height="98.91"/>
    </g>
   </g>
   <path fill="none" d="M36.27 15.81l1294.78 0c19.95,0 36.27,16.32 36.27,36.27l0 0c0,19.94 -16.32,36.26 -36.27,36.26l-1294.78 0c-19.95,0 -36.27,-16.32 -36.27,-36.26l0 0c0,-19.95 16.32,-36.27 36.27,-36.27z"/>
   <path fill="#939393" d="M900.97 53.35c8.82,-1.55 10.88,11.9 2.24,13.31 -8.87,1.45 -11.11,-11.76 -2.24,-13.31zm-0.27 -18.61c3.96,-0.91 7.22,1.84 7.93,5.03 0.91,4.13 -1.83,7.41 -5.05,8.14 -8.52,1.95 -12,-11.07 -2.88,-13.17zm-10.98 43.58l24.34 -10.9c-0.18,-0.7 -1.29,-2.02 -1.81,-2.89 -2.05,-3.41 -1.49,-8.86 -1.49,-13.32 0,-5.64 -0.02,-13.04 1.28,-18.27 2.11,-8.49 13.29,-21.35 14.82,-24.55 -1.34,0.25 -7.63,3.55 -8.95,4.31 -7.56,4.3 -13.24,7.91 -19.28,14.05 -9.65,9.79 -8.55,12.26 -8.7,24.91 -0.1,8.71 -0.38,17.92 -0.21,26.66z"/>
   <path fill="#E4E4E4" d="M901.31 38.78c-3.47,1.09 -1.9,5.92 1.42,5.14 3.21,-0.75 2.18,-6.27 -1.42,-5.14zm-16.79 42.07c0.84,-0.41 0.68,-0.3 0.7,-1.47 0.14,-7.74 -0.11,-15.61 0.18,-23.33 0.17,-4.58 -0.45,-12.79 0.31,-16.78 1.59,-8.38 8.6,-14.64 14.32,-19.91 3.5,-3.22 10.93,-8.07 15.32,-10.35 1.19,-0.62 4.66,-2.3 5.49,-3.01 -9.53,0 -21.95,1.03 -29.72,4.68 -6.42,3.02 -13.96,10.23 -17.95,16.27 -6.99,10.58 -6.43,16.05 -6.43,27.86 0,2.48 -0.26,32.33 -0.04,33.88l17.82 -7.84zm13.46 -1.04c0.16,1.9 0.98,4.11 1.47,5.84 1.38,-0.6 3.64,-2.33 5.07,-3.24 1.67,-1.08 3.48,-2.22 5.17,-3.39 0.06,-0.79 -0.04,-3.9 -0.63,-4.2 -0.19,-0.1 -3.16,1.28 -3.63,1.51 -2.05,0.97 -5.91,2.39 -7.45,3.48zm6.87 14.94c1.33,-0.92 8.06,-7.69 8.34,-8.41 -0.29,-0.59 -1.57,-2.45 -2.03,-2.84 -1.28,0.81 -9.11,5.76 -9.6,6.44 0.45,1.48 2.37,4.3 3.29,4.81zm3.94 2.62c1.42,1 7.54,1.11 9.57,0.97l0 -8.5c-2,-0.62 -1.75,-0.8 -2.92,0.56 -0.71,0.83 -1.55,1.42 -2.28,2.22 -1.36,1.48 -3.25,3.31 -4.37,4.75zm18.33 0.68c0.3,-1.26 0.34,-6.41 0.18,-7.89l-4.4 0.05 0 8.11 4.22 -0.27zm-25.84 -40.61c-3.28,1.03 -2.02,5.98 1.45,5.16 3.43,-0.8 2.12,-6.27 -1.45,-5.16z"/>
   <path fill="#010101" d="M917.89 89.69l0.47 0.15 0 0.36c-0.12,-0.23 -0.27,-0.4 -0.47,-0.51zm-6.2 4.51c-1.04,1.08 -2.12,2.21 -2.87,3.17 0.58,0.39 1.91,0.65 3.43,0.8 2.24,0.23 4.88,0.23 6.09,0.15l0 -8.46 -0.66 -0.22c-0.56,-0.19 -0.87,-0.29 -1.12,-0.24 -0.28,0.05 -0.5,0.31 -0.97,0.86l-0.13 0.15c-0.39,0.45 -0.8,0.82 -1.21,1.19 -0.37,0.33 -0.73,0.66 -1.07,1.03 -0.46,0.5 -0.97,1.03 -1.49,1.57zm-7.69 -54.71c-0.56,-0.69 -1.48,-1.07 -2.69,-0.69 -1.18,0.37 -1.77,1.18 -1.9,2.05 -0.06,0.38 -0.03,0.77 0.07,1.15 0.1,0.37 0.29,0.72 0.53,1.03 0.59,0.71 1.54,1.14 2.72,0.87 1.15,-0.27 1.75,-1.16 1.88,-2.12 0.05,-0.4 0.03,-0.83 -0.08,-1.22 -0.1,-0.39 -0.28,-0.77 -0.53,-1.07zm-8.61 0.48c0.39,-2.36 2.05,-4.5 5.31,-5.25l0.06 -0.01c1.96,-0.44 3.75,0.03 5.14,0.99 1.38,0.96 2.37,2.43 2.74,4.02l0.01 0.05c0.43,1.95 0.04,3.72 -0.82,5.11 -0.97,1.56 -2.54,2.66 -4.24,3.05 -3.11,0.71 -5.55,-0.56 -6.95,-2.57 -0.55,-0.77 -0.94,-1.66 -1.15,-2.58 -0.22,-0.92 -0.26,-1.88 -0.1,-2.81zm8.67 18.24c-0.59,-0.73 -1.55,-1.13 -2.78,-0.75 -1.14,0.36 -1.73,1.2 -1.86,2.1 -0.05,0.38 -0.03,0.78 0.07,1.16 0.11,0.37 0.28,0.73 0.53,1.03 0.57,0.7 1.5,1.12 2.71,0.83 1.2,-0.28 1.82,-1.14 1.95,-2.09 0.06,-0.39 0.03,-0.81 -0.08,-1.21 -0.1,-0.39 -0.29,-0.76 -0.54,-1.07zm-8.57 0.09c0.53,-2.35 2.29,-4.41 5.47,-4.97 3.16,-0.55 5.45,0.8 6.7,2.84 0.5,0.81 0.83,1.73 0.99,2.68 0.16,0.95 0.14,1.93 -0.06,2.86 -0.52,2.38 -2.25,4.46 -5.38,4.97 -3.18,0.52 -5.52,-0.85 -6.79,-2.89 -0.51,-0.8 -0.85,-1.71 -1,-2.65 -0.16,-0.94 -0.14,-1.92 0.07,-2.84zm28.76 31.89c0.85,0 1.73,0 2.54,-0.03l-2.54 0.03zm-1.33 8.11l4.18 -0.27c0.14,-0.59 0.22,-1.97 0.26,-3.44 0.04,-1.74 0.01,-3.6 -0.08,-4.41l-4.36 0.05 0 8.07zm-19.86 -5.59c0.64,0.94 1.34,1.76 1.79,2.02 0.68,-0.49 2.74,-2.45 4.64,-4.37 1.83,-1.84 3.52,-3.65 3.68,-4.02 -0.16,-0.32 -0.6,-1 -1.04,-1.61 -0.38,-0.53 -0.76,-1.02 -0.97,-1.2 -0.85,0.53 -4.34,2.74 -6.86,4.43 -1.41,0.94 -2.52,1.73 -2.72,1.98 0.23,0.75 0.83,1.82 1.48,2.77zm-0.06 -15.3c-1.87,0.79 -3.97,1.68 -5,2.41 0.12,1.4 0.61,2.98 1.04,4.41l0.42 1.39c0.96,-0.42 2.33,-1.37 3.55,-2.22 0.55,-0.38 1.07,-0.74 1.5,-1.01l0.93 -0.6c1.4,-0.89 2.86,-1.83 4.24,-2.78 0.03,-0.49 0,-1.82 -0.15,-2.86 -0.1,-0.66 -0.25,-1.2 -0.48,-1.31 -0.06,-0.03 -0.48,0.12 -1.02,0.35 -0.97,0.4 -2.29,1.02 -2.6,1.16 -0.66,0.31 -1.52,0.68 -2.43,1.06zm-13.16 -18.28c-0.11,6.39 -0.22,12.89 -0.1,19.15l24.3 -10.87c-0.13,-0.45 -0.62,-1.15 -1.1,-1.81 -0.26,-0.38 -0.52,-0.75 -0.71,-1.06 -1.69,-2.82 -1.6,-7.03 -1.52,-10.93l0.03 -2.68c0,-5.61 0,-12.85 1.28,-17.99 1.46,-5.9 7.3,-13.9 11.25,-19.31 1.71,-2.35 3.07,-4.22 3.56,-5.21 -0.54,0.12 -1.77,0.66 -3.15,1.32 -2.27,1.09 -4.95,2.51 -5.76,2.98 -3.78,2.15 -7.09,4.13 -10.21,6.33 -3.12,2.21 -6.05,4.65 -9.07,7.71 -8.65,8.78 -8.66,11.68 -8.67,21.31l-0.02 3.59 -0.11 7.47zm-23.11 0.61c-0.06,9.13 -0.18,27.5 -0.02,28.92l17.87 -7.86c0.35,-0.17 0.51,-0.25 0.57,-0.39 0.06,-0.11 0.05,-0.28 0.05,-0.57l0 -0.46c0.06,-3.22 0.05,-6.48 0.04,-9.73 -0.01,-4.54 -0.03,-9.1 0.14,-13.6 0.06,-1.64 0.02,-3.75 -0.02,-5.96 -0.07,-3.96 -0.16,-8.26 0.33,-10.83 1.55,-8.16 8.23,-14.31 13.86,-19.49l0.46 -0.42c1.66,-1.52 4.19,-3.41 6.87,-5.22 2.99,-2.02 6.15,-3.94 8.46,-5.14l0.94 -0.48c1.49,-0.75 3.78,-1.91 4.5,-2.49 -5.29,0.01 -11.47,0.33 -17.24,1.23 -4.61,0.73 -8.97,1.83 -12.41,3.45 -3.09,1.45 -6.44,3.88 -9.53,6.68 -3.32,3.01 -6.35,6.46 -8.41,9.58 -6.49,9.82 -6.47,15.23 -6.44,25.41l0.01 2.44 -0.03 4.93zm-5.98 29.3l0.06 -43.01c0,-6.53 2.03,-12.72 4.93,-18.13 3.88,-7.22 9.34,-13.03 13.62,-16.37 2.62,-2.05 4.91,-3.83 7.57,-5.33 2.66,-1.5 5.7,-2.72 9.8,-3.66 3.45,-0.79 7.38,-1.39 11.38,-1.81 4.25,-0.44 8.58,-0.66 12.5,-0.66l4.55 -0.07c4.8,0 9.38,0.67 9.38,6.17 0,2.1 -1.03,3.39 -2.01,4.62l-0.53 0.68c-0.57,0.76 -1.11,1.53 -1.66,2.32 -0.49,0.7 -0.99,1.42 -1.53,2.15 -1.66,2.26 -4.21,5.73 -6.47,9.32 -2.26,3.59 -4.24,7.3 -4.78,10.04 -1.14,5.87 -0.96,13.9 -0.81,20.45l0.05 1.99c0.07,3.38 0.27,3.63 1.6,5.32l0.51 0.66c0.43,0.55 0.76,1.17 0.97,1.81 0.36,1.07 0.41,2.24 0.09,3.36 -0.33,1.11 -1.03,2.19 -2.18,3.07 -0.75,0.58 -1.69,1.08 -2.83,1.46 0.02,0.89 0.15,1.76 0.27,2.62 0.08,0.51 0.15,1.02 0.21,1.54l0.08 0.93c0.04,0.48 0.06,0.73 0.13,0.94 0.07,0.23 0.2,0.42 0.47,0.81l0.85 1.32c0.96,1.56 1.74,2.83 4.56,2.87 0.77,0.01 1.58,-0.04 2.41,-0.09 1.91,-0.12 3.91,-0.25 5.65,0.42 0.99,0.37 1.91,1.13 2.56,2.13 0.61,0.91 0.98,2.03 0.98,3.26 0,0.87 0.02,1.66 0.04,2.43 0.1,4.97 0.2,9.48 -3.92,10.94 -1.26,0.45 -3.64,0.51 -5.25,0.56l-0.46 0.01c-0.78,0.02 -1.29,-0.08 -1.76,-0.17 -0.32,-0.06 -0.62,-0.12 -0.98,-0.14 -0.37,-0.02 -0.71,0.06 -1.08,0.15 -0.39,0.1 -0.82,0.2 -1.36,0.2l-0.54 0c-3.69,0 -9.11,0.01 -11.98,-1.68 -0.76,-0.45 -0.98,-0.74 -1.17,-1.02 -0.26,-0.36 -0.49,-0.68 -1.96,-1.25 -1.31,-0.52 -2.55,-1.69 -3.63,-3.09 -1.41,-1.84 -2.55,-4.09 -3.23,-5.84 -0.58,-1.51 -0.92,-2.03 -1.21,-2.48 -0.45,-0.7 -0.8,-1.23 -1.78,-5.09 -0.93,0.07 -7.83,3.27 -12.63,5.49 -2,0.93 -3.64,1.69 -4.33,1.98 -0.56,0.24 -1.3,0.6 -2.12,0.99 -2.23,1.06 -5.06,2.41 -6.53,2.55l-0.6 0.03c-1.55,0 -2.95,-0.58 -4,-1.52 -1.04,-0.93 -1.74,-2.23 -1.87,-3.66l-0.03 -0.52z"/>
  </g>
 </g>
</svg>
