<?xml version="1.0" encoding="UTF-8"?>
<!DOCTYPE svg PUBLIC "-//W3C//DTD SVG 1.1//EN" "http://www.w3.org/Graphics/SVG/1.1/DTD/svg11.dtd">
<!-- Creator: CorelDRAW -->
<svg xmlns="http://www.w3.org/2000/svg" xml:space="preserve" width="1285px" height="104px" version="1.1" shape-rendering="geometricPrecision" text-rendering="geometricPrecision" image-rendering="optimizeQuality" fill-rule="evenodd" clip-rule="evenodd"
viewBox="0 0 1168.83 94.8"
 xmlns:xlink="http://www.w3.org/1999/xlink"
 xmlns:xodm="http://www.corel.com/coreldraw/odm/2003">
 <defs>
   <clipPath id="id0">
    <path d="M33.02 16.25l1102.78 0c18.17,0 33.03,14.86 33.03,33.03l0 0c0,18.16 -14.86,33.02 -33.03,33.02l-1102.78 0c-18.16,0 -33.02,-14.86 -33.02,-33.02l0 0c0,-18.17 14.86,-33.03 33.02,-33.03z"/>
   </clipPath>
 </defs>
 <g id="Camada_x0020_1">
  <metadata id="CorelCorpID_0Corel-Layer"/>
  <path fill="#B3B3B3" d="M33.02 16.25l1102.78 0c18.17,0 33.03,14.86 33.03,33.03l0 0c0,18.16 -14.86,33.02 -33.03,33.02l-1102.78 0c-18.16,0 -33.02,-14.86 -33.02,-33.02l0 0c0,-18.17 14.86,-33.03 33.02,-33.03z"/>
  <g clip-path="url(#id0)">
   <g id="_2303008398272">
    <rect fill="#00C84E" x="-103" y="4.24" width="160.34" height="90.07"/>
   </g>
  </g>
  <path fill="none" d="M33.02 16.25l1102.78 0c18.17,0 33.03,14.86 33.03,33.03l0 0c0,18.16 -14.86,33.02 -33.03,33.02l-1102.78 0c-18.16,0 -33.02,-14.86 -33.02,-33.02l0 0c0,-18.17 14.86,-33.03 33.02,-33.03z"/>
  <g id="_2303008398608">
   <path fill="#010101" d="M61.04 88.65c1.02,-1.32 2.74,-2.98 3.98,-4.33 0.66,-0.73 1.43,-1.27 2.07,-2.02 1.07,-1.24 0.84,-1.08 2.66,-0.51l0 7.74c-1.85,0.13 -7.43,0.02 -8.71,-0.88zm16.69 0.61l-3.85 0.26 0 -7.4 4.01 -0.04c0.15,1.35 0.11,6.04 -0.16,7.18zm-20.28 -3c-0.84,-0.46 -2.59,-3.03 -3,-4.38 0.45,-0.62 7.58,-5.13 8.74,-5.86 0.42,0.35 1.59,2.04 1.85,2.58 -0.25,0.66 -6.38,6.82 -7.59,7.66zm-6.26 -13.61c1.4,-0.99 4.92,-2.28 6.78,-3.16 0.44,-0.21 3.14,-1.47 3.31,-1.38 0.54,0.27 0.63,3.1 0.58,3.83 -1.54,1.07 -3.19,2.1 -4.71,3.08 -1.3,0.84 -3.37,2.4 -4.62,2.95 -0.44,-1.57 -1.19,-3.58 -1.34,-5.32zm-7.52 -1.36c-0.15,-7.95 0.1,-16.33 0.19,-24.27 0.14,-11.51 -0.86,-13.76 7.92,-22.69 5.5,-5.58 10.68,-8.86 17.56,-12.78 1.21,-0.69 6.93,-3.7 8.15,-3.92 -1.4,2.91 -11.58,14.62 -13.5,22.35 -1.18,4.76 -1.16,11.5 -1.16,16.63 0,4.06 -0.51,9.03 1.36,12.13 0.47,0.8 1.48,2 1.65,2.63l-22.17 9.92zm-20.97 9.45c-0.19,-1.41 0.04,-28.59 0.04,-30.85 0,-10.76 -0.51,-15.73 5.86,-25.37 3.63,-5.49 10.5,-12.06 16.35,-14.81 7.07,-3.33 18.38,-4.26 27.06,-4.26 -0.76,0.64 -3.92,2.17 -5,2.73 -4,2.08 -10.77,6.5 -13.95,9.44 -5.21,4.79 -11.59,10.49 -13.04,18.12 -0.69,3.64 -0.12,11.11 -0.28,15.28 -0.27,7.03 -0.04,14.2 -0.16,21.24 -0.02,1.07 0.12,0.97 -0.64,1.35l-16.24 7.13zm-5.34 -38.84l-0.05 39.16c0,2.98 2.67,5.45 5.89,5.15 1.84,-0.18 6,-2.43 7.88,-3.22 2.15,-0.92 14.34,-6.77 15.46,-6.81 1.48,5.77 1.37,3.37 2.73,6.91 1.08,2.79 3.48,7.03 6.24,8.11 2.33,0.92 1.24,1.13 2.85,2.07 2.74,1.62 8.04,1.53 11.39,1.53 0.96,0 1.52,-0.35 2.22,-0.32 0.82,0.04 1.31,0.32 2.5,0.28 1.44,-0.04 3.93,-0.06 5.19,-0.51 4.34,-1.55 3.52,-6.82 3.52,-12.16 0,-2.32 -1.49,-4.23 -3.21,-4.89 -2.26,-0.88 -5.01,-0.26 -7.34,-0.3 -2.99,-0.05 -3.47,-1.6 -4.61,-3.34 -0.97,-1.46 -0.75,-0.86 -0.95,-2.94 -0.12,-1.24 -0.41,-2.48 -0.43,-3.8 5.2,-1.74 5.69,-6.1 3.6,-8.8 -1.64,-2.13 -1.86,-2.01 -1.93,-5.46 -0.13,-6.24 -0.45,-14.54 0.7,-20.44 0.97,-4.99 7.21,-13.52 10.24,-17.64 1.04,-1.42 1.93,-2.77 2.91,-4.07 0.99,-1.32 2.31,-2.56 2.31,-4.81 0,-6.6 -7.28,-5.54 -12.67,-5.54 -6.93,0 -15.25,0.77 -21.74,2.25 -7.47,1.71 -11.03,4.46 -15.81,8.18 -6.82,5.32 -16.89,17.52 -16.89,31.41z"/>
   <path fill="#E4E4E4" d="M38.94 73.61c0.76,-0.38 0.62,-0.28 0.64,-1.35 0.12,-7.04 -0.11,-14.21 0.16,-21.24 0.16,-4.17 -0.41,-11.64 0.28,-15.28 1.45,-7.63 7.83,-13.33 13.04,-18.12 3.18,-2.94 9.95,-7.36 13.95,-9.44 1.08,-0.56 4.24,-2.09 5,-2.73 -8.68,0 -19.99,0.93 -27.06,4.26 -5.85,2.75 -12.72,9.32 -16.35,14.81 -6.37,9.64 -5.86,14.61 -5.86,25.37 0,2.26 -0.23,29.44 -0.04,30.85l16.24 -7.13z"/>
   <path fill="#939393" d="M53.91 48.56c8.03,-1.41 9.91,10.84 2.04,12.12 -8.07,1.32 -10.11,-10.7 -2.04,-12.12zm-0.24 -16.94c3.61,-0.83 6.58,1.67 7.22,4.58 0.83,3.76 -1.67,6.74 -4.6,7.41 -7.76,1.78 -10.93,-10.08 -2.62,-11.99zm-10 39.67l22.17 -9.92c-0.17,-0.63 -1.18,-1.83 -1.65,-2.63 -1.87,-3.1 -1.36,-8.07 -1.36,-12.13 0,-5.13 -0.02,-11.87 1.16,-16.63 1.92,-7.73 12.1,-19.44 13.5,-22.35 -1.22,0.22 -6.94,3.23 -8.15,3.92 -6.88,3.92 -12.06,7.2 -17.56,12.78 -8.78,8.93 -7.78,11.18 -7.92,22.69 -0.09,7.94 -0.34,16.32 -0.19,24.27z"/>
   <path fill="#010101" d="M54.19 52.29c3.26,-1.01 4.45,3.96 1.33,4.7 -3.16,0.74 -4.31,-3.77 -1.33,-4.7zm-0.28 -3.73c-8.07,1.42 -6.03,13.44 2.04,12.12 7.87,-1.28 5.99,-13.53 -2.04,-12.12z"/>
   <path fill="#010101" d="M54.22 35.3c3.28,-1.04 4.22,3.99 1.3,4.67 -3.03,0.71 -4.45,-3.68 -1.3,-4.67zm-0.55 -3.68c-8.31,1.91 -5.14,13.77 2.62,11.99 2.93,-0.67 5.43,-3.65 4.6,-7.41 -0.64,-2.91 -3.61,-5.41 -7.22,-4.58z"/>
   <path fill="#E4E4E4" d="M51.19 72.65c0.15,1.74 0.9,3.75 1.34,5.32 1.25,-0.55 3.32,-2.11 4.62,-2.95 1.52,-0.98 3.17,-2.01 4.71,-3.08 0.05,-0.73 -0.04,-3.56 -0.58,-3.83 -0.17,-0.09 -2.87,1.17 -3.31,1.38 -1.86,0.88 -5.38,2.17 -6.78,3.16z"/>
   <path fill="#E4E4E4" d="M57.45 86.26c1.21,-0.84 7.34,-7 7.59,-7.66 -0.26,-0.54 -1.43,-2.23 -1.85,-2.58 -1.16,0.73 -8.29,5.24 -8.74,5.86 0.41,1.35 2.16,3.92 3,4.38z"/>
   <path fill="#E4E4E4" d="M61.04 88.65c1.28,0.9 6.86,1.01 8.71,0.88l0 -7.74c-1.82,-0.57 -1.59,-0.73 -2.66,0.51 -0.64,0.75 -1.41,1.29 -2.07,2.02 -1.24,1.35 -2.96,3.01 -3.98,4.33z"/>
   <path fill="#E4E4E4" d="M77.73 89.26c0.27,-1.14 0.31,-5.83 0.16,-7.18l-4.01 0.04 0 7.4 3.85 -0.26z"/>
   <path fill="#E4E4E4" d="M54.19 52.29c-2.98,0.93 -1.83,5.44 1.33,4.7 3.12,-0.74 1.93,-5.71 -1.33,-4.7z"/>
   <path fill="#E4E4E4" d="M54.22 35.3c-3.15,0.99 -1.73,5.38 1.3,4.67 2.92,-0.68 1.98,-5.71 -1.3,-4.67z"/>
   <path fill="#010101" d="M61.04 88.65c1.02,-1.32 2.74,-2.98 3.98,-4.33 0.66,-0.73 1.43,-1.27 2.07,-2.02 1.07,-1.24 0.84,-1.08 2.66,-0.51l0 7.74c-1.85,0.13 -7.43,0.02 -8.71,-0.88zm16.69 0.61l-3.85 0.26 0 -7.4 4.01 -0.04c0.15,1.35 0.11,6.04 -0.16,7.18zm-20.28 -3c-0.84,-0.46 -2.59,-3.03 -3,-4.38 0.45,-0.62 7.58,-5.13 8.74,-5.86 0.42,0.35 1.59,2.04 1.85,2.58 -0.25,0.66 -6.38,6.82 -7.59,7.66zm-6.26 -13.61c1.4,-0.99 4.92,-2.28 6.78,-3.16 0.44,-0.21 3.14,-1.47 3.31,-1.38 0.54,0.27 0.63,3.1 0.58,3.83 -1.54,1.07 -3.19,2.1 -4.71,3.08 -1.3,0.84 -3.37,2.4 -4.62,2.95 -0.44,-1.57 -1.19,-3.58 -1.34,-5.32zm-7.52 -1.36c-0.15,-7.95 0.1,-16.33 0.19,-24.27 0.14,-11.51 -0.86,-13.76 7.92,-22.69 5.5,-5.58 10.68,-8.86 17.56,-12.78 1.21,-0.69 6.93,-3.7 8.15,-3.92 -1.4,2.91 -11.58,14.62 -13.5,22.35 -1.18,4.76 -1.16,11.5 -1.16,16.63 0,4.06 -0.51,9.03 1.36,12.13 0.47,0.8 1.48,2 1.65,2.63l-22.17 9.92zm-20.97 9.45c-0.19,-1.41 0.04,-28.59 0.04,-30.85 0,-10.76 -0.51,-15.73 5.86,-25.37 3.63,-5.49 10.5,-12.06 16.35,-14.81 7.07,-3.33 18.38,-4.26 27.06,-4.26 -0.76,0.64 -3.92,2.17 -5,2.73 -4,2.08 -10.77,6.5 -13.95,9.44 -5.21,4.79 -11.59,10.49 -13.04,18.12 -0.69,3.64 -0.12,11.11 -0.28,15.28 -0.27,7.03 -0.04,14.2 -0.16,21.24 -0.02,1.07 0.12,0.97 -0.64,1.35l-16.24 7.13zm-5.34 -38.84l-0.05 39.16c0,2.98 2.67,5.45 5.89,5.15 1.84,-0.18 6,-2.43 7.88,-3.22 2.15,-0.92 14.34,-6.77 15.46,-6.81 1.48,5.77 1.37,3.37 2.73,6.91 1.08,2.79 3.48,7.03 6.24,8.11 2.33,0.92 1.24,1.13 2.85,2.07 2.74,1.62 8.04,1.53 11.39,1.53 0.96,0 1.52,-0.35 2.22,-0.32 0.82,0.04 1.31,0.32 2.5,0.28 1.44,-0.04 3.93,-0.06 5.19,-0.51 4.34,-1.55 3.52,-6.82 3.52,-12.16 0,-2.32 -1.49,-4.23 -3.21,-4.89 -2.26,-0.88 -5.01,-0.26 -7.34,-0.3 -2.99,-0.05 -3.47,-1.6 -4.61,-3.34 -0.97,-1.46 -0.75,-0.86 -0.95,-2.94 -0.12,-1.24 -0.41,-2.48 -0.43,-3.8 5.2,-1.74 5.69,-6.1 3.6,-8.8 -1.64,-2.13 -1.86,-2.01 -1.93,-5.46 -0.13,-6.24 -0.45,-14.54 0.7,-20.44 0.97,-4.99 7.21,-13.52 10.24,-17.64 1.04,-1.42 1.93,-2.77 2.91,-4.07 0.99,-1.32 2.31,-2.56 2.31,-4.81 0,-6.6 -7.28,-5.54 -12.67,-5.54 -6.93,0 -15.25,0.77 -21.74,2.25 -7.47,1.71 -11.03,4.46 -15.81,8.18 -6.82,5.32 -16.89,17.52 -16.89,31.41z"/>
   <path fill="#E4E4E4" d="M38.94 73.61c0.76,-0.38 0.62,-0.28 0.64,-1.35 0.12,-7.04 -0.11,-14.21 0.16,-21.24 0.16,-4.17 -0.41,-11.64 0.28,-15.28 1.45,-7.63 7.83,-13.33 13.04,-18.12 3.18,-2.94 9.95,-7.36 13.95,-9.44 1.08,-0.56 4.24,-2.09 5,-2.73 -8.68,0 -19.99,0.93 -27.06,4.26 -5.85,2.75 -12.72,9.32 -16.35,14.81 -6.37,9.64 -5.86,14.61 -5.86,25.37 0,2.26 -0.23,29.44 -0.04,30.85l16.24 -7.13z"/>
   <path fill="#939393" d="M53.91 48.56c8.03,-1.41 9.91,10.84 2.04,12.12 -8.07,1.32 -10.11,-10.7 -2.04,-12.12zm-0.24 -16.94c3.61,-0.83 6.58,1.67 7.22,4.58 0.83,3.76 -1.67,6.74 -4.6,7.41 -7.76,1.78 -10.93,-10.08 -2.62,-11.99zm-10 39.67l22.17 -9.92c-0.17,-0.63 -1.18,-1.83 -1.65,-2.63 -1.87,-3.1 -1.36,-8.07 -1.36,-12.13 0,-5.13 -0.02,-11.87 1.16,-16.63 1.92,-7.73 12.1,-19.44 13.5,-22.35 -1.22,0.22 -6.94,3.23 -8.15,3.92 -6.88,3.92 -12.06,7.2 -17.56,12.78 -8.78,8.93 -7.78,11.18 -7.92,22.69 -0.09,7.94 -0.34,16.32 -0.19,24.27z"/>
   <path fill="#010101" d="M54.19 52.29c3.26,-1.01 4.45,3.96 1.33,4.7 -3.16,0.74 -4.31,-3.77 -1.33,-4.7zm-0.28 -3.73c-8.07,1.42 -6.03,13.44 2.04,12.12 7.87,-1.28 5.99,-13.53 -2.04,-12.12z"/>
   <path fill="#010101" d="M54.22 35.3c3.28,-1.04 4.22,3.99 1.3,4.67 -3.03,0.71 -4.45,-3.68 -1.3,-4.67zm-0.55 -3.68c-8.31,1.91 -5.14,13.77 2.62,11.99 2.93,-0.67 5.43,-3.65 4.6,-7.41 -0.64,-2.91 -3.61,-5.41 -7.22,-4.58z"/>
   <path fill="#E4E4E4" d="M51.19 72.65c0.15,1.74 0.9,3.75 1.34,5.32 1.25,-0.55 3.32,-2.11 4.62,-2.95 1.52,-0.98 3.17,-2.01 4.71,-3.08 0.05,-0.73 -0.04,-3.56 -0.58,-3.83 -0.17,-0.09 -2.87,1.17 -3.31,1.38 -1.86,0.88 -5.38,2.17 -6.78,3.16z"/>
   <path fill="#E4E4E4" d="M57.45 86.26c1.21,-0.84 7.34,-7 7.59,-7.66 -0.26,-0.54 -1.43,-2.23 -1.85,-2.58 -1.16,0.73 -8.29,5.24 -8.74,5.86 0.41,1.35 2.16,3.92 3,4.38z"/>
   <path fill="#E4E4E4" d="M61.04 88.65c1.28,0.9 6.86,1.01 8.71,0.88l0 -7.74c-1.82,-0.57 -1.59,-0.73 -2.66,0.51 -0.64,0.75 -1.41,1.29 -2.07,2.02 -1.24,1.35 -2.96,3.01 -3.98,4.33z"/>
   <path fill="#E4E4E4" d="M77.73 89.26c0.27,-1.14 0.31,-5.83 0.16,-7.18l-4.01 0.04 0 7.4 3.85 -0.26z"/>
   <path fill="#E4E4E4" d="M54.19 52.29c-2.98,0.93 -1.83,5.44 1.33,4.7 3.12,-0.74 1.93,-5.71 -1.33,-4.7z"/>
   <path fill="#E4E4E4" d="M54.22 35.3c-3.15,0.99 -1.73,5.38 1.3,4.67 2.92,-0.68 1.98,-5.71 -1.3,-4.67z"/>
  </g>
 </g>
</svg>
