<?xml version="1.0" encoding="UTF-8"?>
<!DOCTYPE svg PUBLIC "-//W3C//DTD SVG 1.1//EN" "http://www.w3.org/Graphics/SVG/1.1/DTD/svg11.dtd">
<!-- Creator: CorelDRAW -->
<svg xmlns="http://www.w3.org/2000/svg" xml:space="preserve" width="1285px" height="104px" version="1.1" shape-rendering="geometricPrecision" text-rendering="geometricPrecision" image-rendering="optimizeQuality" fill-rule="evenodd" clip-rule="evenodd"
viewBox="0 0 1169.77 94.88"
 xmlns:xlink="http://www.w3.org/1999/xlink"
 xmlns:xodm="http://www.corel.com/coreldraw/odm/2003">
 <defs>
   <clipPath id="id0">
    <path d="M33.05 14.39l1103.67 0c18.18,0 33.05,14.87 33.05,33.05l0 0c0,18.18 -14.87,33.05 -33.05,33.05l-1103.67 0c-18.18,0 -33.05,-14.87 -33.05,-33.05l0 0c0,-18.18 14.87,-33.05 33.05,-33.05z"/>
   </clipPath>
 </defs>
 <g id="Camada_x0020_1">
  <metadata id="CorelCorpID_0Corel-Layer"/>
  <path fill="#B3B3B3" d="M33.05 14.39l1103.67 0c18.18,0 33.05,14.87 33.05,33.05l0 0c0,18.18 -14.87,33.05 -33.05,33.05l-1103.67 0c-18.18,0 -33.05,-14.87 -33.05,-33.05l0 0c0,-18.18 14.87,-33.05 33.05,-33.05z"/>
  <g clip-path="url(#id0)">
   <g id="_2302999846688">
    <rect fill="#00C84E" x="-103.09" y="2.37" width="430.15" height="90.14"/>
   </g>
  </g>
  <path fill="none" d="M33.05 14.39l1103.67 0c18.18,0 33.05,14.87 33.05,33.05l0 0c0,18.18 -14.87,33.05 -33.05,33.05l-1103.67 0c-18.18,0 -33.05,-14.87 -33.05,-33.05l0 0c0,-18.18 14.87,-33.05 33.05,-33.05z"/>
  <g id="_2302999846784">
   <path fill="#010101" d="M328.59 88.72c1.02,-1.32 2.74,-2.98 3.98,-4.33 0.67,-0.74 1.43,-1.27 2.08,-2.03 1.07,-1.23 0.83,-1.07 2.66,-0.5l0 7.74c-1.85,0.13 -7.43,0.02 -8.72,-0.88zm16.7 0.61l-3.85 0.26 0.01 -7.4 4.01 -0.05c0.14,1.35 0.11,6.05 -0.17,7.19zm-20.29 -3c-0.84,-0.46 -2.59,-3.04 -3,-4.38 0.45,-0.63 7.58,-5.14 8.75,-5.87 0.41,0.35 1.58,2.04 1.85,2.58 -0.25,0.66 -6.39,6.83 -7.6,7.67zm-6.27 -13.62c1.41,-0.99 4.93,-2.29 6.79,-3.17 0.44,-0.2 3.14,-1.46 3.32,-1.37 0.53,0.27 0.62,3.1 0.57,3.82 -1.54,1.08 -3.19,2.11 -4.71,3.09 -1.31,0.84 -3.37,2.41 -4.63,2.96 -0.44,-1.58 -1.19,-3.59 -1.34,-5.33zm-7.52 -1.36c-0.15,-7.96 0.1,-16.35 0.19,-24.29 0.13,-11.53 -0.87,-13.78 7.93,-22.71 5.5,-5.58 10.68,-8.87 17.57,-12.8 1.2,-0.68 6.93,-3.69 8.16,-3.92 -1.4,2.91 -11.59,14.64 -13.51,22.37 -1.18,4.76 -1.16,11.51 -1.16,16.65 0,4.06 -0.52,9.03 1.35,12.14 0.48,0.79 1.48,2 1.65,2.63l-22.18 9.93zm-20.98 9.46c-0.2,-1.41 0.04,-28.62 0.03,-30.88 0,-10.76 -0.51,-15.75 5.87,-25.39 3.63,-5.5 10.5,-12.07 16.36,-14.83 7.07,-3.32 18.39,-4.26 27.08,-4.26 -0.76,0.64 -3.92,2.17 -5.01,2.74 -4,2.08 -10.77,6.5 -13.96,9.44 -5.21,4.8 -11.6,10.5 -13.05,18.14 -0.69,3.64 -0.12,11.11 -0.28,15.29 -0.26,7.04 -0.03,14.21 -0.16,21.26 -0.02,1.07 0.12,0.97 -0.64,1.35l-16.24 7.14zm-5.35 -38.88l-0.05 39.2c0,2.98 2.67,5.45 5.9,5.14 1.83,-0.17 6,-2.42 7.88,-3.22 2.15,-0.91 14.35,-6.77 15.47,-6.81 1.48,5.78 1.37,3.37 2.74,6.91 1.08,2.8 3.48,7.04 6.24,8.13 2.33,0.91 1.24,1.12 2.85,2.07 2.74,1.61 8.04,1.53 11.4,1.53 0.95,0 1.52,-0.36 2.22,-0.32 0.82,0.04 1.31,0.32 2.5,0.28 1.45,-0.04 3.94,-0.07 5.2,-0.52 4.34,-1.54 3.52,-6.82 3.52,-12.17 0,-2.32 -1.49,-4.23 -3.21,-4.89 -2.27,-0.88 -5.02,-0.26 -7.35,-0.3 -2.99,-0.05 -3.47,-1.6 -4.61,-3.34 -0.97,-1.46 -0.75,-0.86 -0.95,-2.94 -0.13,-1.25 -0.41,-2.49 -0.43,-3.8 5.2,-1.75 5.69,-6.11 3.6,-8.82 -1.65,-2.13 -1.86,-2.01 -1.93,-5.46 -0.13,-6.24 -0.46,-14.55 0.7,-20.45 0.97,-5 7.21,-13.54 10.24,-17.66 1.05,-1.42 1.94,-2.77 2.91,-4.07 1,-1.33 2.32,-2.56 2.32,-4.81 0,-6.61 -7.29,-5.55 -12.68,-5.55 -6.94,0 -15.27,0.77 -21.76,2.25 -7.48,1.71 -11.04,4.46 -15.82,8.19 -6.83,5.32 -16.9,17.53 -16.9,31.43z"/>
   <path fill="#E4E4E4" d="M306.47 73.67c0.76,-0.38 0.62,-0.28 0.64,-1.35 0.13,-7.05 -0.1,-14.22 0.16,-21.26 0.16,-4.18 -0.41,-11.65 0.28,-15.29 1.45,-7.64 7.84,-13.34 13.05,-18.14 3.19,-2.94 9.96,-7.36 13.96,-9.44 1.09,-0.57 4.25,-2.1 5.01,-2.74 -8.69,0 -20.01,0.94 -27.08,4.26 -5.86,2.76 -12.73,9.33 -16.36,14.83 -6.38,9.64 -5.87,14.63 -5.87,25.39 0.01,2.26 -0.23,29.47 -0.03,30.88l16.24 -7.14z"/>
   <path fill="#939393" d="M321.46 48.6c8.04,-1.41 9.92,10.85 2.04,12.13 -8.08,1.32 -10.12,-10.71 -2.04,-12.13zm-0.24 -16.96c3.6,-0.83 6.58,1.68 7.22,4.59 0.83,3.76 -1.66,6.74 -4.6,7.42 -7.76,1.77 -10.94,-10.09 -2.62,-12.01zm-10.01 39.71l22.18 -9.93c-0.17,-0.63 -1.17,-1.84 -1.65,-2.63 -1.87,-3.11 -1.35,-8.08 -1.35,-12.14 0,-5.14 -0.02,-11.89 1.16,-16.65 1.92,-7.73 12.11,-19.46 13.51,-22.37 -1.23,0.23 -6.96,3.24 -8.16,3.92 -6.89,3.93 -12.07,7.22 -17.57,12.8 -8.8,8.93 -7.8,11.18 -7.93,22.71 -0.09,7.94 -0.34,16.33 -0.19,24.29z"/>
   <path fill="#010101" d="M321.74 52.33c3.25,-1.01 4.45,3.97 1.33,4.7 -3.17,0.75 -4.32,-3.77 -1.33,-4.7zm-0.28 -3.73c-8.08,1.42 -6.04,13.45 2.04,12.13 7.88,-1.28 6,-13.54 -2.04,-12.13z"/>
   <path fill="#010101" d="M321.77 35.32c3.28,-1.03 4.22,4 1.3,4.69 -3.03,0.7 -4.46,-3.69 -1.3,-4.69zm-0.55 -3.68c-8.32,1.92 -5.14,13.78 2.62,12.01 2.94,-0.68 5.43,-3.66 4.6,-7.42 -0.64,-2.91 -3.62,-5.42 -7.22,-4.59z"/>
   <path fill="#E4E4E4" d="M318.73 72.71c0.15,1.74 0.9,3.75 1.34,5.33 1.26,-0.55 3.32,-2.12 4.63,-2.96 1.52,-0.98 3.17,-2.01 4.71,-3.09 0.05,-0.72 -0.04,-3.55 -0.57,-3.82 -0.18,-0.09 -2.88,1.17 -3.32,1.37 -1.86,0.88 -5.38,2.18 -6.79,3.17z"/>
   <path fill="#E4E4E4" d="M325 86.33c1.21,-0.84 7.35,-7.01 7.6,-7.67 -0.27,-0.54 -1.44,-2.23 -1.85,-2.58 -1.17,0.73 -8.3,5.24 -8.75,5.87 0.41,1.34 2.16,3.92 3,4.38z"/>
   <path fill="#E4E4E4" d="M328.59 88.72c1.29,0.9 6.87,1.01 8.72,0.88l0 -7.74c-1.83,-0.57 -1.59,-0.73 -2.66,0.5 -0.65,0.76 -1.41,1.29 -2.08,2.03 -1.24,1.35 -2.96,3.01 -3.98,4.33z"/>
   <path fill="#E4E4E4" d="M345.29 89.33c0.28,-1.14 0.31,-5.84 0.17,-7.19l-4.01 0.05 -0.01 7.4 3.85 -0.26z"/>
   <path fill="#E4E4E4" d="M321.74 52.33c-2.99,0.93 -1.84,5.45 1.33,4.7 3.12,-0.73 1.92,-5.71 -1.33,-4.7z"/>
   <path fill="#E4E4E4" d="M321.77 35.32c-3.16,1 -1.73,5.39 1.3,4.69 2.92,-0.69 1.98,-5.72 -1.3,-4.69z"/>
   <path fill="#010101" d="M328.59 88.72c1.02,-1.32 2.74,-2.98 3.98,-4.33 0.67,-0.74 1.43,-1.27 2.08,-2.03 1.07,-1.23 0.83,-1.07 2.66,-0.5l0 7.74c-1.85,0.13 -7.43,0.02 -8.72,-0.88zm16.7 0.61l-3.85 0.26 0.01 -7.4 4.01 -0.05c0.14,1.35 0.11,6.05 -0.17,7.19zm-20.29 -3c-0.84,-0.46 -2.59,-3.04 -3,-4.38 0.45,-0.63 7.58,-5.14 8.75,-5.87 0.41,0.35 1.58,2.04 1.85,2.58 -0.25,0.66 -6.39,6.83 -7.6,7.67zm-6.27 -13.62c1.41,-0.99 4.93,-2.29 6.79,-3.17 0.44,-0.2 3.14,-1.46 3.32,-1.37 0.53,0.27 0.62,3.1 0.57,3.82 -1.54,1.08 -3.19,2.11 -4.71,3.09 -1.31,0.84 -3.37,2.41 -4.63,2.96 -0.44,-1.58 -1.19,-3.59 -1.34,-5.33zm-7.52 -1.36c-0.15,-7.96 0.1,-16.35 0.19,-24.29 0.13,-11.53 -0.87,-13.78 7.93,-22.71 5.5,-5.58 10.68,-8.87 17.57,-12.8 1.2,-0.68 6.93,-3.69 8.16,-3.92 -1.4,2.91 -11.59,14.64 -13.51,22.37 -1.18,4.76 -1.16,11.51 -1.16,16.65 0,4.06 -0.52,9.03 1.35,12.14 0.48,0.79 1.48,2 1.65,2.63l-22.18 9.93zm-20.98 9.46c-0.2,-1.41 0.04,-28.62 0.03,-30.88 0,-10.76 -0.51,-15.75 5.87,-25.39 3.63,-5.5 10.5,-12.07 16.36,-14.83 7.07,-3.32 18.39,-4.26 27.08,-4.26 -0.76,0.64 -3.92,2.17 -5.01,2.74 -4,2.08 -10.77,6.5 -13.96,9.44 -5.21,4.8 -11.6,10.5 -13.05,18.14 -0.69,3.64 -0.12,11.11 -0.28,15.29 -0.26,7.04 -0.03,14.21 -0.16,21.26 -0.02,1.07 0.12,0.97 -0.64,1.35l-16.24 7.14zm-5.35 -38.88l-0.05 39.2c0,2.98 2.67,5.45 5.9,5.14 1.83,-0.17 6,-2.42 7.88,-3.22 2.15,-0.91 14.35,-6.77 15.47,-6.81 1.48,5.78 1.37,3.37 2.74,6.91 1.08,2.8 3.48,7.04 6.24,8.13 2.33,0.91 1.24,1.12 2.85,2.07 2.74,1.61 8.04,1.53 11.4,1.53 0.95,0 1.52,-0.36 2.22,-0.32 0.82,0.04 1.31,0.32 2.5,0.28 1.45,-0.04 3.94,-0.07 5.2,-0.52 4.34,-1.54 3.52,-6.82 3.52,-12.17 0,-2.32 -1.49,-4.23 -3.21,-4.89 -2.27,-0.88 -5.02,-0.26 -7.35,-0.3 -2.99,-0.05 -3.47,-1.6 -4.61,-3.34 -0.97,-1.46 -0.75,-0.86 -0.95,-2.94 -0.13,-1.25 -0.41,-2.49 -0.43,-3.8 5.2,-1.75 5.69,-6.11 3.6,-8.82 -1.65,-2.13 -1.86,-2.01 -1.93,-5.46 -0.13,-6.24 -0.46,-14.55 0.7,-20.45 0.97,-5 7.21,-13.54 10.24,-17.66 1.05,-1.42 1.94,-2.77 2.91,-4.07 1,-1.33 2.32,-2.56 2.32,-4.81 0,-6.61 -7.29,-5.55 -12.68,-5.55 -6.94,0 -15.27,0.77 -21.76,2.25 -7.48,1.71 -11.04,4.46 -15.82,8.19 -6.83,5.32 -16.9,17.53 -16.9,31.43z"/>
   <path fill="#E4E4E4" d="M306.47 73.67c0.76,-0.38 0.62,-0.28 0.64,-1.35 0.13,-7.05 -0.1,-14.22 0.16,-21.26 0.16,-4.18 -0.41,-11.65 0.28,-15.29 1.45,-7.64 7.84,-13.34 13.05,-18.14 3.19,-2.94 9.96,-7.36 13.96,-9.44 1.09,-0.57 4.25,-2.1 5.01,-2.74 -8.69,0 -20.01,0.94 -27.08,4.26 -5.86,2.76 -12.73,9.33 -16.36,14.83 -6.38,9.64 -5.87,14.63 -5.87,25.39 0.01,2.26 -0.23,29.47 -0.03,30.88l16.24 -7.14z"/>
   <path fill="#939393" d="M321.46 48.6c8.04,-1.41 9.92,10.85 2.04,12.13 -8.08,1.32 -10.12,-10.71 -2.04,-12.13zm-0.24 -16.96c3.6,-0.83 6.58,1.68 7.22,4.59 0.83,3.76 -1.66,6.74 -4.6,7.42 -7.76,1.77 -10.94,-10.09 -2.62,-12.01zm-10.01 39.71l22.18 -9.93c-0.17,-0.63 -1.17,-1.84 -1.65,-2.63 -1.87,-3.11 -1.35,-8.08 -1.35,-12.14 0,-5.14 -0.02,-11.89 1.16,-16.65 1.92,-7.73 12.11,-19.46 13.51,-22.37 -1.23,0.23 -6.96,3.24 -8.16,3.92 -6.89,3.93 -12.07,7.22 -17.57,12.8 -8.8,8.93 -7.8,11.18 -7.93,22.71 -0.09,7.94 -0.34,16.33 -0.19,24.29z"/>
   <path fill="#010101" d="M321.74 52.33c3.25,-1.01 4.45,3.97 1.33,4.7 -3.17,0.75 -4.32,-3.77 -1.33,-4.7zm-0.28 -3.73c-8.08,1.42 -6.04,13.45 2.04,12.13 7.88,-1.28 6,-13.54 -2.04,-12.13z"/>
   <path fill="#010101" d="M321.77 35.32c3.28,-1.03 4.22,4 1.3,4.69 -3.03,0.7 -4.46,-3.69 -1.3,-4.69zm-0.55 -3.68c-8.32,1.92 -5.14,13.78 2.62,12.01 2.94,-0.68 5.43,-3.66 4.6,-7.42 -0.64,-2.91 -3.62,-5.42 -7.22,-4.59z"/>
   <path fill="#E4E4E4" d="M318.73 72.71c0.15,1.74 0.9,3.75 1.34,5.33 1.26,-0.55 3.32,-2.12 4.63,-2.96 1.52,-0.98 3.17,-2.01 4.71,-3.09 0.05,-0.72 -0.04,-3.55 -0.57,-3.82 -0.18,-0.09 -2.88,1.17 -3.32,1.37 -1.86,0.88 -5.38,2.18 -6.79,3.17z"/>
   <path fill="#E4E4E4" d="M325 86.33c1.21,-0.84 7.35,-7.01 7.6,-7.67 -0.27,-0.54 -1.44,-2.23 -1.85,-2.58 -1.17,0.73 -8.3,5.24 -8.75,5.87 0.41,1.34 2.16,3.92 3,4.38z"/>
   <path fill="#E4E4E4" d="M328.59 88.72c1.29,0.9 6.87,1.01 8.72,0.88l0 -7.74c-1.83,-0.57 -1.59,-0.73 -2.66,0.5 -0.65,0.76 -1.41,1.29 -2.08,2.03 -1.24,1.35 -2.96,3.01 -3.98,4.33z"/>
   <path fill="#E4E4E4" d="M345.29 89.33c0.28,-1.14 0.31,-5.84 0.17,-7.19l-4.01 0.05 -0.01 7.4 3.85 -0.26z"/>
   <path fill="#E4E4E4" d="M321.74 52.33c-2.99,0.93 -1.84,5.45 1.33,4.7 3.12,-0.73 1.92,-5.71 -1.33,-4.7z"/>
   <path fill="#E4E4E4" d="M321.77 35.32c-3.16,1 -1.73,5.39 1.3,4.69 2.92,-0.69 1.98,-5.72 -1.3,-4.69z"/>
  </g>
 </g>
</svg>
