<?xml version="1.0" encoding="UTF-8"?>
<!DOCTYPE svg PUBLIC "-//W3C//DTD SVG 1.1//EN" "http://www.w3.org/Graphics/SVG/1.1/DTD/svg11.dtd">
<!-- Creator: CorelDRAW -->
<svg xmlns="http://www.w3.org/2000/svg" xml:space="preserve" width="1285px" height="104px" version="1.1" shape-rendering="geometricPrecision" text-rendering="geometricPrecision" image-rendering="optimizeQuality" fill-rule="evenodd" clip-rule="evenodd"
viewBox="0 0 1170.72 94.95"
 xmlns:xlink="http://www.w3.org/1999/xlink"
 xmlns:xodm="http://www.corel.com/coreldraw/odm/2003">
 <defs>
   <clipPath id="id0">
    <path d="M33.08 14.4l1104.56 0c18.19,0 33.08,14.88 33.08,33.08l0 0c0,18.19 -14.89,33.07 -33.08,33.07l-1104.56 0c-18.2,0 -33.08,-14.88 -33.08,-33.07l0 0c0,-18.2 14.88,-33.08 33.08,-33.08z"/>
   </clipPath>
 </defs>
 <g id="Camada_x0020_1">
  <metadata id="CorelCorpID_0Corel-Layer"/>
  <path fill="#B3B3B3" d="M33.08 14.4l1104.56 0c18.19,0 33.08,14.88 33.08,33.08l0 0c0,18.19 -14.89,33.07 -33.08,33.07l-1104.56 0c-18.2,0 -33.08,-14.88 -33.08,-33.07l0 0c0,-18.2 14.88,-33.08 33.08,-33.08z"/>
  <g clip-path="url(#id0)">
   <g id="_2302836486208">
    <rect fill="#00C84E" x="-103.17" y="2.37" width="697.17" height="90.21"/>
   </g>
  </g>
  <path fill="none" d="M33.08 14.4l1104.56 0c18.19,0 33.08,14.88 33.08,33.08l0 0c0,18.19 -14.89,33.07 -33.08,33.07l-1104.56 0c-18.2,0 -33.08,-14.88 -33.08,-33.07l0 0c0,-18.2 14.88,-33.08 33.08,-33.08z"/>
  <g id="_2302836487600">
   <path fill="#010101" d="M595.52 88.79c1.02,-1.32 2.75,-2.98 3.99,-4.34 0.67,-0.73 1.43,-1.27 2.08,-2.02 1.07,-1.24 0.84,-1.08 2.67,-0.51l0 7.76c-1.86,0.12 -7.45,0.02 -8.74,-0.89zm16.72 0.62l-3.85 0.25 0 -7.4 4.02 -0.05c0.14,1.35 0.11,6.05 -0.17,7.2zm-20.31 -3.01c-0.84,-0.46 -2.59,-3.04 -3,-4.39 0.45,-0.62 7.58,-5.14 8.75,-5.87 0.42,0.36 1.59,2.05 1.86,2.59 -0.26,0.66 -6.4,6.83 -7.61,7.67zm-6.27 -13.63c1.4,-0.99 4.93,-2.29 6.8,-3.17 0.43,-0.21 3.13,-1.47 3.31,-1.38 0.54,0.27 0.63,3.11 0.58,3.83 -1.55,1.07 -3.19,2.11 -4.72,3.09 -1.3,0.84 -3.37,2.41 -4.63,2.96 -0.44,-1.58 -1.19,-3.59 -1.34,-5.33zm-7.53 -1.36c-0.15,-7.97 0.1,-16.37 0.19,-24.31 0.14,-11.54 -0.87,-13.79 7.93,-22.73 5.51,-5.59 10.7,-8.88 17.59,-12.81 1.21,-0.69 6.94,-3.7 8.17,-3.92 -1.41,2.91 -11.6,14.64 -13.52,22.38 -1.19,4.77 -1.17,11.52 -1.17,16.67 0,4.06 -0.51,9.03 1.36,12.15 0.48,0.79 1.48,2 1.65,2.63l-22.2 9.94zm-21 9.46c-0.2,-1.41 0.04,-28.64 0.04,-30.9 0,-10.77 -0.51,-15.76 5.86,-25.41 3.65,-5.5 10.52,-12.08 16.38,-14.84 7.08,-3.33 18.41,-4.27 27.1,-4.27 -0.76,0.65 -3.92,2.18 -5.01,2.75 -4,2.08 -10.78,6.51 -13.97,9.44 -5.22,4.81 -11.61,10.51 -13.06,18.15 -0.69,3.65 -0.12,11.13 -0.28,15.32 -0.26,7.03 -0.04,14.21 -0.16,21.27 -0.02,1.07 0.12,0.96 -0.64,1.35l-16.26 7.14zm-5.35 -38.91l-0.05 39.23c0,2.98 2.67,5.46 5.9,5.15 1.84,-0.17 6.01,-2.42 7.89,-3.22 2.15,-0.92 14.36,-6.78 15.49,-6.82 1.48,5.79 1.36,3.38 2.73,6.92 1.08,2.8 3.49,7.04 6.25,8.13 2.33,0.92 1.24,1.13 2.85,2.07 2.74,1.62 8.05,1.53 11.41,1.53 0.96,0 1.52,-0.35 2.23,-0.32 0.82,0.04 1.31,0.32 2.5,0.29 1.45,-0.05 3.93,-0.07 5.2,-0.52 4.35,-1.55 3.53,-6.83 3.53,-12.18 0,-2.32 -1.5,-4.24 -3.22,-4.9 -2.27,-0.87 -5.02,-0.25 -7.35,-0.29 -3,-0.06 -3.48,-1.61 -4.62,-3.35 -0.97,-1.46 -0.75,-0.86 -0.95,-2.94 -0.13,-1.25 -0.41,-2.49 -0.43,-3.81 5.2,-1.74 5.69,-6.11 3.6,-8.82 -1.64,-2.13 -1.86,-2.01 -1.93,-5.47 -0.13,-6.25 -0.46,-14.56 0.7,-20.47 0.97,-5 7.22,-13.54 10.25,-17.66 1.05,-1.43 1.94,-2.78 2.92,-4.08 1,-1.33 2.31,-2.56 2.31,-4.82 0,-6.61 -7.29,-5.55 -12.68,-5.55 -6.95,0 -15.28,0.77 -21.78,2.25 -7.49,1.71 -11.05,4.47 -15.84,8.2 -6.83,5.33 -16.91,17.54 -16.91,31.45z"/>
   <path fill="#E4E4E4" d="M573.39 73.73c0.76,-0.39 0.62,-0.28 0.64,-1.35 0.12,-7.06 -0.1,-14.24 0.16,-21.27 0.16,-4.19 -0.41,-11.67 0.28,-15.32 1.45,-7.64 7.84,-13.34 13.06,-18.15 3.19,-2.93 9.97,-7.36 13.97,-9.44 1.09,-0.57 4.25,-2.1 5.01,-2.75 -8.69,0 -20.02,0.94 -27.1,4.27 -5.86,2.76 -12.73,9.34 -16.38,14.84 -6.37,9.65 -5.86,14.64 -5.86,25.41 0,2.26 -0.24,29.49 -0.04,30.9l16.26 -7.14z"/>
   <path fill="#939393" d="M588.39 48.64c8.04,-1.41 9.93,10.85 2.04,12.14 -8.09,1.32 -10.13,-10.72 -2.04,-12.14zm-0.25 -16.97c3.62,-0.83 6.59,1.67 7.24,4.59 0.83,3.76 -1.67,6.75 -4.61,7.42 -7.77,1.78 -10.95,-10.1 -2.63,-12.01zm-10.01 39.74l22.2 -9.94c-0.17,-0.63 -1.17,-1.84 -1.65,-2.63 -1.87,-3.12 -1.36,-8.09 -1.36,-12.15 0,-5.15 -0.02,-11.9 1.17,-16.67 1.92,-7.74 12.11,-19.47 13.52,-22.38 -1.23,0.22 -6.96,3.23 -8.17,3.92 -6.89,3.93 -12.08,7.22 -17.59,12.81 -8.8,8.94 -7.79,11.19 -7.93,22.73 -0.09,7.94 -0.34,16.34 -0.19,24.31z"/>
   <path fill="#010101" d="M588.67 52.37c3.26,-1.01 4.46,3.97 1.33,4.71 -3.17,0.74 -4.32,-3.77 -1.33,-4.71zm-0.28 -3.73c-8.09,1.42 -6.05,13.46 2.04,12.14 7.89,-1.29 6,-13.55 -2.04,-12.14z"/>
   <path fill="#010101" d="M588.7 35.35c3.29,-1.03 4.23,4 1.3,4.69 -3.03,0.71 -4.46,-3.7 -1.3,-4.69zm-0.56 -3.68c-8.32,1.91 -5.14,13.79 2.63,12.01 2.94,-0.67 5.44,-3.66 4.61,-7.42 -0.65,-2.92 -3.62,-5.42 -7.24,-4.59z"/>
   <path fill="#E4E4E4" d="M585.66 72.77c0.15,1.74 0.9,3.75 1.34,5.33 1.26,-0.55 3.33,-2.12 4.63,-2.96 1.53,-0.98 3.17,-2.02 4.72,-3.09 0.05,-0.72 -0.04,-3.56 -0.58,-3.83 -0.18,-0.09 -2.88,1.17 -3.31,1.38 -1.87,0.88 -5.4,2.18 -6.8,3.17z"/>
   <path fill="#E4E4E4" d="M591.93 86.4c1.21,-0.84 7.35,-7.01 7.61,-7.67 -0.27,-0.54 -1.44,-2.23 -1.86,-2.59 -1.17,0.73 -8.3,5.25 -8.75,5.87 0.41,1.35 2.16,3.93 3,4.39z"/>
   <path fill="#E4E4E4" d="M595.52 88.79c1.29,0.91 6.88,1.01 8.74,0.89l0 -7.76c-1.83,-0.57 -1.6,-0.73 -2.67,0.51 -0.65,0.75 -1.41,1.29 -2.08,2.02 -1.24,1.36 -2.97,3.02 -3.99,4.34z"/>
   <path fill="#E4E4E4" d="M612.24 89.41c0.28,-1.15 0.31,-5.85 0.17,-7.2l-4.02 0.05 0 7.4 3.85 -0.25z"/>
   <path fill="#E4E4E4" d="M588.67 52.37c-2.99,0.94 -1.84,5.45 1.33,4.71 3.13,-0.74 1.93,-5.72 -1.33,-4.71z"/>
   <path fill="#E4E4E4" d="M588.7 35.35c-3.16,0.99 -1.73,5.4 1.3,4.69 2.93,-0.69 1.99,-5.72 -1.3,-4.69z"/>
   <path fill="#010101" d="M595.52 88.79c1.02,-1.32 2.75,-2.98 3.99,-4.34 0.67,-0.73 1.43,-1.27 2.08,-2.02 1.07,-1.24 0.84,-1.08 2.67,-0.51l0 7.76c-1.86,0.12 -7.45,0.02 -8.74,-0.89zm16.72 0.62l-3.85 0.25 0 -7.4 4.02 -0.05c0.14,1.35 0.11,6.05 -0.17,7.2zm-20.31 -3.01c-0.84,-0.46 -2.59,-3.04 -3,-4.39 0.45,-0.62 7.58,-5.14 8.75,-5.87 0.42,0.36 1.59,2.05 1.86,2.59 -0.26,0.66 -6.4,6.83 -7.61,7.67zm-6.27 -13.63c1.4,-0.99 4.93,-2.29 6.8,-3.17 0.43,-0.21 3.13,-1.47 3.31,-1.38 0.54,0.27 0.63,3.11 0.58,3.83 -1.55,1.07 -3.19,2.11 -4.72,3.09 -1.3,0.84 -3.37,2.41 -4.63,2.96 -0.44,-1.58 -1.19,-3.59 -1.34,-5.33zm-7.53 -1.36c-0.15,-7.97 0.1,-16.37 0.19,-24.31 0.14,-11.54 -0.87,-13.79 7.93,-22.73 5.51,-5.59 10.7,-8.88 17.59,-12.81 1.21,-0.69 6.94,-3.7 8.17,-3.92 -1.41,2.91 -11.6,14.64 -13.52,22.38 -1.19,4.77 -1.17,11.52 -1.17,16.67 0,4.06 -0.51,9.03 1.36,12.15 0.48,0.79 1.48,2 1.65,2.63l-22.2 9.94zm-21 9.46c-0.2,-1.41 0.04,-28.64 0.04,-30.9 0,-10.77 -0.51,-15.76 5.86,-25.41 3.65,-5.5 10.52,-12.08 16.38,-14.84 7.08,-3.33 18.41,-4.27 27.1,-4.27 -0.76,0.65 -3.92,2.18 -5.01,2.75 -4,2.08 -10.78,6.51 -13.97,9.44 -5.22,4.81 -11.61,10.51 -13.06,18.15 -0.69,3.65 -0.12,11.13 -0.28,15.32 -0.26,7.03 -0.04,14.21 -0.16,21.27 -0.02,1.07 0.12,0.96 -0.64,1.35l-16.26 7.14zm-5.35 -38.91l-0.05 39.23c0,2.98 2.67,5.46 5.9,5.15 1.84,-0.17 6.01,-2.42 7.89,-3.22 2.15,-0.92 14.36,-6.78 15.49,-6.82 1.48,5.79 1.36,3.38 2.73,6.92 1.08,2.8 3.49,7.04 6.25,8.13 2.33,0.92 1.24,1.13 2.85,2.07 2.74,1.62 8.05,1.53 11.41,1.53 0.96,0 1.52,-0.35 2.23,-0.32 0.82,0.04 1.31,0.32 2.5,0.29 1.45,-0.05 3.93,-0.07 5.2,-0.52 4.35,-1.55 3.53,-6.83 3.53,-12.18 0,-2.32 -1.5,-4.24 -3.22,-4.9 -2.27,-0.87 -5.02,-0.25 -7.35,-0.29 -3,-0.06 -3.48,-1.61 -4.62,-3.35 -0.97,-1.46 -0.75,-0.86 -0.95,-2.94 -0.13,-1.25 -0.41,-2.49 -0.43,-3.81 5.2,-1.74 5.69,-6.11 3.6,-8.82 -1.64,-2.13 -1.86,-2.01 -1.93,-5.47 -0.13,-6.25 -0.46,-14.56 0.7,-20.47 0.97,-5 7.22,-13.54 10.25,-17.66 1.05,-1.43 1.94,-2.78 2.92,-4.08 1,-1.33 2.31,-2.56 2.31,-4.82 0,-6.61 -7.29,-5.55 -12.68,-5.55 -6.95,0 -15.28,0.77 -21.78,2.25 -7.49,1.71 -11.05,4.47 -15.84,8.2 -6.83,5.33 -16.91,17.54 -16.91,31.45z"/>
   <path fill="#E4E4E4" d="M573.39 73.73c0.76,-0.39 0.62,-0.28 0.64,-1.35 0.12,-7.06 -0.1,-14.24 0.16,-21.27 0.16,-4.19 -0.41,-11.67 0.28,-15.32 1.45,-7.64 7.84,-13.34 13.06,-18.15 3.19,-2.93 9.97,-7.36 13.97,-9.44 1.09,-0.57 4.25,-2.1 5.01,-2.75 -8.69,0 -20.02,0.94 -27.1,4.27 -5.86,2.76 -12.73,9.34 -16.38,14.84 -6.37,9.65 -5.86,14.64 -5.86,25.41 0,2.26 -0.24,29.49 -0.04,30.9l16.26 -7.14z"/>
   <path fill="#939393" d="M588.39 48.64c8.04,-1.41 9.93,10.85 2.04,12.14 -8.09,1.32 -10.13,-10.72 -2.04,-12.14zm-0.25 -16.97c3.62,-0.83 6.59,1.67 7.24,4.59 0.83,3.76 -1.67,6.75 -4.61,7.42 -7.77,1.78 -10.95,-10.1 -2.63,-12.01zm-10.01 39.74l22.2 -9.94c-0.17,-0.63 -1.17,-1.84 -1.65,-2.63 -1.87,-3.12 -1.36,-8.09 -1.36,-12.15 0,-5.15 -0.02,-11.9 1.17,-16.67 1.92,-7.74 12.11,-19.47 13.52,-22.38 -1.23,0.22 -6.96,3.23 -8.17,3.92 -6.89,3.93 -12.08,7.22 -17.59,12.81 -8.8,8.94 -7.79,11.19 -7.93,22.73 -0.09,7.94 -0.34,16.34 -0.19,24.31z"/>
   <path fill="#010101" d="M588.67 52.37c3.26,-1.01 4.46,3.97 1.33,4.71 -3.17,0.74 -4.32,-3.77 -1.33,-4.71zm-0.28 -3.73c-8.09,1.42 -6.05,13.46 2.04,12.14 7.89,-1.29 6,-13.55 -2.04,-12.14z"/>
   <path fill="#010101" d="M588.7 35.35c3.29,-1.03 4.23,4 1.3,4.69 -3.03,0.71 -4.46,-3.7 -1.3,-4.69zm-0.56 -3.68c-8.32,1.91 -5.14,13.79 2.63,12.01 2.94,-0.67 5.44,-3.66 4.61,-7.42 -0.65,-2.92 -3.62,-5.42 -7.24,-4.59z"/>
   <path fill="#E4E4E4" d="M585.66 72.77c0.15,1.74 0.9,3.75 1.34,5.33 1.26,-0.55 3.33,-2.12 4.63,-2.96 1.53,-0.98 3.17,-2.02 4.72,-3.09 0.05,-0.72 -0.04,-3.56 -0.58,-3.83 -0.18,-0.09 -2.88,1.17 -3.31,1.38 -1.87,0.88 -5.4,2.18 -6.8,3.17z"/>
   <path fill="#E4E4E4" d="M591.93 86.4c1.21,-0.84 7.35,-7.01 7.61,-7.67 -0.27,-0.54 -1.44,-2.23 -1.86,-2.59 -1.17,0.73 -8.3,5.25 -8.75,5.87 0.41,1.35 2.16,3.93 3,4.39z"/>
   <path fill="#E4E4E4" d="M595.52 88.79c1.29,0.91 6.88,1.01 8.74,0.89l0 -7.76c-1.83,-0.57 -1.6,-0.73 -2.67,0.51 -0.65,0.75 -1.41,1.29 -2.08,2.02 -1.24,1.36 -2.97,3.02 -3.99,4.34z"/>
   <path fill="#E4E4E4" d="M612.24 89.41c0.28,-1.15 0.31,-5.85 0.17,-7.2l-4.02 0.05 0 7.4 3.85 -0.25z"/>
   <path fill="#E4E4E4" d="M588.67 52.37c-2.99,0.94 -1.84,5.45 1.33,4.71 3.13,-0.74 1.93,-5.72 -1.33,-4.71z"/>
   <path fill="#E4E4E4" d="M588.7 35.35c-3.16,0.99 -1.73,5.4 1.3,4.69 2.93,-0.69 1.99,-5.72 -1.3,-4.69z"/>
  </g>
 </g>
</svg>
