<?xml version="1.0" encoding="UTF-8"?>
<!DOCTYPE svg PUBLIC "-//W3C//DTD SVG 1.1//EN" "http://www.w3.org/Graphics/SVG/1.1/DTD/svg11.dtd">
<!-- Creator: CorelDRAW -->
<svg xmlns="http://www.w3.org/2000/svg" xml:space="preserve" width="1285px" height="104px" version="1.1" shape-rendering="geometricPrecision" text-rendering="geometricPrecision" image-rendering="optimizeQuality" fill-rule="evenodd" clip-rule="evenodd"
viewBox="0 0 1171.66 95.03"
 xmlns:xlink="http://www.w3.org/1999/xlink"
 xmlns:xodm="http://www.corel.com/coreldraw/odm/2003">
 <defs>
   <clipPath id="id0">
    <path d="M33.1 14.41l1105.46 0c18.21,0 33.1,14.9 33.1,33.11l0 0c0,18.2 -14.89,33.1 -33.1,33.1l-1105.46 0c-18.2,0 -33.1,-14.9 -33.1,-33.1l0 0c0,-18.21 14.9,-33.11 33.1,-33.11z"/>
   </clipPath>
 </defs>
 <g id="Camada_x0020_1">
  <metadata id="CorelCorpID_0Corel-Layer"/>
  <path fill="#B3B3B3" d="M33.1 14.41l1105.46 0c18.21,0 33.1,14.9 33.1,33.11l0 0c0,18.2 -14.89,33.1 -33.1,33.1l-1105.46 0c-18.2,0 -33.1,-14.9 -33.1,-33.1l0 0c0,-18.21 14.9,-33.11 33.1,-33.11z"/>
  <g clip-path="url(#id0)">
   <g id="_2302998598544">
    <rect fill="#00C84E" x="-103.26" y="2.37" width="964.62" height="90.28"/>
   </g>
  </g>
  <path fill="none" d="M33.1 14.41l1105.46 0c18.21,0 33.1,14.9 33.1,33.11l0 0c0,18.2 -14.89,33.1 -33.1,33.1l-1105.46 0c-18.2,0 -33.1,-14.9 -33.1,-33.1l0 0c0,-18.21 14.9,-33.11 33.1,-33.11z"/>
  <g id="_2302998610928">
   <path fill="#010101" d="M862.89 88.86c1.02,-1.32 2.75,-2.98 3.99,-4.34 0.67,-0.73 1.43,-1.27 2.08,-2.02 1.07,-1.24 0.84,-1.08 2.67,-0.51l0 7.76c-1.86,0.12 -7.45,0.02 -8.74,-0.89zm16.73 0.62l-3.85 0.25 0 -7.41 4.02 -0.04c0.15,1.35 0.11,6.05 -0.17,7.2zm-20.32 -3.01c-0.84,-0.47 -2.6,-3.04 -3.01,-4.39 0.45,-0.63 7.59,-5.14 8.76,-5.88 0.42,0.36 1.59,2.05 1.86,2.59 -0.26,0.66 -6.4,6.84 -7.61,7.68zm-6.28 -13.64c1.4,-1 4.94,-2.29 6.8,-3.17 0.44,-0.21 3.14,-1.47 3.32,-1.38 0.54,0.27 0.63,3.11 0.58,3.83 -1.55,1.07 -3.2,2.11 -4.73,3.09 -1.3,0.84 -3.37,2.41 -4.63,2.96 -0.44,-1.58 -1.19,-3.59 -1.34,-5.33zm-7.53 -1.36c-0.16,-7.98 0.1,-16.38 0.19,-24.33 0.13,-11.55 -0.87,-13.8 7.93,-22.75 5.52,-5.59 10.71,-8.89 17.6,-12.82 1.21,-0.69 6.95,-3.7 8.18,-3.93 -1.41,2.92 -11.61,14.66 -13.53,22.41 -1.19,4.77 -1.17,11.52 -1.17,16.67 0,4.07 -0.51,9.05 1.36,12.16 0.48,0.8 1.48,2.01 1.65,2.64l-22.21 9.95zm-21.02 9.47c-0.2,-1.41 0.04,-28.67 0.04,-30.93 0,-10.78 -0.52,-15.77 5.87,-25.43 3.64,-5.51 10.52,-12.09 16.38,-14.85 7.09,-3.33 18.43,-4.27 27.13,-4.27 -0.76,0.64 -3.92,2.18 -5.01,2.74 -4.01,2.09 -10.79,6.52 -13.99,9.46 -5.22,4.8 -11.62,10.51 -13.07,18.16 -0.69,3.65 -0.12,11.14 -0.28,15.33 -0.26,7.04 -0.03,14.23 -0.16,21.29 -0.02,1.07 0.12,0.96 -0.64,1.35l-16.27 7.15zm-5.36 -38.94l-0.05 39.26c0,2.98 2.67,5.46 5.91,5.15 1.84,-0.17 6.01,-2.42 7.89,-3.22 2.16,-0.92 14.38,-6.79 15.5,-6.83 1.48,5.79 1.37,3.38 2.74,6.93 1.08,2.8 3.49,7.05 6.25,8.13 2.34,0.92 1.24,1.13 2.85,2.08 2.75,1.62 8.07,1.53 11.43,1.53 0.95,0 1.52,-0.35 2.22,-0.32 0.83,0.04 1.32,0.32 2.5,0.28 1.45,-0.04 3.95,-0.06 5.21,-0.51 4.35,-1.55 3.53,-6.84 3.53,-12.19 0,-2.33 -1.5,-4.25 -3.22,-4.91 -2.27,-0.87 -5.02,-0.25 -7.35,-0.29 -3,-0.05 -3.48,-1.61 -4.63,-3.35 -0.97,-1.46 -0.75,-0.86 -0.95,-2.95 -0.12,-1.25 -0.41,-2.49 -0.43,-3.81 5.21,-1.74 5.7,-6.11 3.61,-8.82 -1.65,-2.14 -1.87,-2.02 -1.94,-5.47 -0.13,-6.26 -0.45,-14.58 0.7,-20.49 0.98,-5.01 7.23,-13.56 10.27,-17.68 1.05,-1.43 1.93,-2.78 2.91,-4.08 1,-1.33 2.32,-2.57 2.32,-4.83 0,-6.61 -7.3,-5.55 -12.7,-5.55 -6.95,0 -15.29,0.77 -21.79,2.25 -7.49,1.72 -11.06,4.47 -15.85,8.21 -6.84,5.33 -16.93,17.55 -16.93,31.48z"/>
   <path fill="#E4E4E4" d="M840.74 73.79c0.76,-0.39 0.62,-0.28 0.64,-1.35 0.13,-7.06 -0.1,-14.25 0.16,-21.29 0.16,-4.19 -0.41,-11.68 0.28,-15.33 1.45,-7.65 7.85,-13.36 13.07,-18.16 3.2,-2.94 9.98,-7.37 13.99,-9.46 1.09,-0.56 4.25,-2.1 5.01,-2.74 -8.7,0 -20.04,0.94 -27.13,4.27 -5.86,2.76 -12.74,9.34 -16.38,14.85 -6.39,9.66 -5.87,14.65 -5.87,25.43 0,2.26 -0.24,29.52 -0.04,30.93l16.27 -7.15z"/>
   <path fill="#939393" d="M855.75 48.68c8.05,-1.41 9.94,10.86 2.05,12.15 -8.1,1.32 -10.15,-10.73 -2.05,-12.15zm-0.24 -16.99c3.61,-0.83 6.59,1.68 7.23,4.6 0.84,3.76 -1.66,6.75 -4.6,7.43 -7.78,1.77 -10.96,-10.11 -2.63,-12.03zm-10.02 39.78l22.21 -9.95c-0.17,-0.63 -1.17,-1.84 -1.65,-2.64 -1.87,-3.11 -1.36,-8.09 -1.36,-12.16 0,-5.15 -0.02,-11.9 1.17,-16.67 1.92,-7.75 12.12,-19.49 13.53,-22.41 -1.23,0.23 -6.97,3.24 -8.18,3.93 -6.89,3.93 -12.08,7.23 -17.6,12.82 -8.8,8.95 -7.8,11.2 -7.93,22.75 -0.09,7.95 -0.35,16.35 -0.19,24.33z"/>
   <path fill="#010101" d="M856.03 52.42c3.26,-1.02 4.46,3.97 1.33,4.7 -3.17,0.75 -4.32,-3.77 -1.33,-4.7zm-0.28 -3.74c-8.1,1.42 -6.05,13.47 2.05,12.15 7.89,-1.29 6,-13.56 -2.05,-12.15z"/>
   <path fill="#010101" d="M856.06 35.38c3.29,-1.04 4.23,4.01 1.3,4.69 -3.03,0.71 -4.46,-3.7 -1.3,-4.69zm-0.55 -3.69c-8.33,1.92 -5.15,13.8 2.63,12.03 2.94,-0.68 5.44,-3.67 4.6,-7.43 -0.64,-2.92 -3.62,-5.43 -7.23,-4.6z"/>
   <path fill="#E4E4E4" d="M853.02 72.83c0.15,1.74 0.9,3.75 1.34,5.33 1.26,-0.55 3.33,-2.12 4.63,-2.96 1.53,-0.98 3.18,-2.02 4.73,-3.09 0.05,-0.72 -0.04,-3.56 -0.58,-3.83 -0.18,-0.09 -2.88,1.17 -3.32,1.38 -1.86,0.88 -5.4,2.17 -6.8,3.17z"/>
   <path fill="#E4E4E4" d="M859.3 86.47c1.21,-0.84 7.35,-7.02 7.61,-7.68 -0.27,-0.54 -1.44,-2.23 -1.86,-2.59 -1.17,0.74 -8.31,5.25 -8.76,5.88 0.41,1.35 2.17,3.92 3.01,4.39z"/>
   <path fill="#E4E4E4" d="M862.89 88.86c1.29,0.91 6.88,1.01 8.74,0.89l0 -7.76c-1.83,-0.57 -1.6,-0.73 -2.67,0.51 -0.65,0.75 -1.41,1.29 -2.08,2.02 -1.24,1.36 -2.97,3.02 -3.99,4.34z"/>
   <path fill="#E4E4E4" d="M879.62 89.48c0.28,-1.15 0.32,-5.85 0.17,-7.2l-4.02 0.04 0 7.41 3.85 -0.25z"/>
   <path fill="#E4E4E4" d="M856.03 52.42c-2.99,0.93 -1.84,5.45 1.33,4.7 3.13,-0.73 1.93,-5.72 -1.33,-4.7z"/>
   <path fill="#E4E4E4" d="M856.06 35.38c-3.16,0.99 -1.73,5.4 1.3,4.69 2.93,-0.68 1.99,-5.73 -1.3,-4.69z"/>
   <path fill="#010101" d="M862.89 88.86c1.02,-1.32 2.75,-2.98 3.99,-4.34 0.67,-0.73 1.43,-1.27 2.08,-2.02 1.07,-1.24 0.84,-1.08 2.67,-0.51l0 7.76c-1.86,0.12 -7.45,0.02 -8.74,-0.89zm16.73 0.62l-3.85 0.25 0 -7.41 4.02 -0.04c0.15,1.35 0.11,6.05 -0.17,7.2zm-20.32 -3.01c-0.84,-0.47 -2.6,-3.04 -3.01,-4.39 0.45,-0.63 7.59,-5.14 8.76,-5.88 0.42,0.36 1.59,2.05 1.86,2.59 -0.26,0.66 -6.4,6.84 -7.61,7.68zm-6.28 -13.64c1.4,-1 4.94,-2.29 6.8,-3.17 0.44,-0.21 3.14,-1.47 3.32,-1.38 0.54,0.27 0.63,3.11 0.58,3.83 -1.55,1.07 -3.2,2.11 -4.73,3.09 -1.3,0.84 -3.37,2.41 -4.63,2.96 -0.44,-1.58 -1.19,-3.59 -1.34,-5.33zm-7.53 -1.36c-0.16,-7.98 0.1,-16.38 0.19,-24.33 0.13,-11.55 -0.87,-13.8 7.93,-22.75 5.52,-5.59 10.71,-8.89 17.6,-12.82 1.21,-0.69 6.95,-3.7 8.18,-3.93 -1.41,2.92 -11.61,14.66 -13.53,22.41 -1.19,4.77 -1.17,11.52 -1.17,16.67 0,4.07 -0.51,9.05 1.36,12.16 0.48,0.8 1.48,2.01 1.65,2.64l-22.21 9.95zm-21.02 9.47c-0.2,-1.41 0.04,-28.67 0.04,-30.93 0,-10.78 -0.52,-15.77 5.87,-25.43 3.64,-5.51 10.52,-12.09 16.38,-14.85 7.09,-3.33 18.43,-4.27 27.13,-4.27 -0.76,0.64 -3.92,2.18 -5.01,2.74 -4.01,2.09 -10.79,6.52 -13.99,9.46 -5.22,4.8 -11.62,10.51 -13.07,18.16 -0.69,3.65 -0.12,11.14 -0.28,15.33 -0.26,7.04 -0.03,14.23 -0.16,21.29 -0.02,1.07 0.12,0.96 -0.64,1.35l-16.27 7.15zm-5.36 -38.94l-0.05 39.26c0,2.98 2.67,5.46 5.91,5.15 1.84,-0.17 6.01,-2.42 7.89,-3.22 2.16,-0.92 14.38,-6.79 15.5,-6.83 1.48,5.79 1.37,3.38 2.74,6.93 1.08,2.8 3.49,7.05 6.25,8.13 2.34,0.92 1.24,1.13 2.85,2.08 2.75,1.62 8.07,1.53 11.43,1.53 0.95,0 1.52,-0.35 2.22,-0.32 0.83,0.04 1.32,0.32 2.5,0.28 1.45,-0.04 3.95,-0.06 5.21,-0.51 4.35,-1.55 3.53,-6.84 3.53,-12.19 0,-2.33 -1.5,-4.25 -3.22,-4.91 -2.27,-0.87 -5.02,-0.25 -7.35,-0.29 -3,-0.05 -3.48,-1.61 -4.63,-3.35 -0.97,-1.46 -0.75,-0.86 -0.95,-2.95 -0.12,-1.25 -0.41,-2.49 -0.43,-3.81 5.21,-1.74 5.7,-6.11 3.61,-8.82 -1.65,-2.14 -1.87,-2.02 -1.94,-5.47 -0.13,-6.26 -0.45,-14.58 0.7,-20.49 0.98,-5.01 7.23,-13.56 10.27,-17.68 1.05,-1.43 1.93,-2.78 2.91,-4.08 1,-1.33 2.32,-2.57 2.32,-4.83 0,-6.61 -7.3,-5.55 -12.7,-5.55 -6.95,0 -15.29,0.77 -21.79,2.25 -7.49,1.72 -11.06,4.47 -15.85,8.21 -6.84,5.33 -16.93,17.55 -16.93,31.48z"/>
   <path fill="#E4E4E4" d="M840.74 73.79c0.76,-0.39 0.62,-0.28 0.64,-1.35 0.13,-7.06 -0.1,-14.25 0.16,-21.29 0.16,-4.19 -0.41,-11.68 0.28,-15.33 1.45,-7.65 7.85,-13.36 13.07,-18.16 3.2,-2.94 9.98,-7.37 13.99,-9.46 1.09,-0.56 4.25,-2.1 5.01,-2.74 -8.7,0 -20.04,0.94 -27.13,4.27 -5.86,2.76 -12.74,9.34 -16.38,14.85 -6.39,9.66 -5.87,14.65 -5.87,25.43 0,2.26 -0.24,29.52 -0.04,30.93l16.27 -7.15z"/>
   <path fill="#939393" d="M855.75 48.68c8.05,-1.41 9.94,10.86 2.05,12.15 -8.1,1.32 -10.15,-10.73 -2.05,-12.15zm-0.24 -16.99c3.61,-0.83 6.59,1.68 7.23,4.6 0.84,3.76 -1.66,6.75 -4.6,7.43 -7.78,1.77 -10.96,-10.11 -2.63,-12.03zm-10.02 39.78l22.21 -9.95c-0.17,-0.63 -1.17,-1.84 -1.65,-2.64 -1.87,-3.11 -1.36,-8.09 -1.36,-12.16 0,-5.15 -0.02,-11.9 1.17,-16.67 1.92,-7.75 12.12,-19.49 13.53,-22.41 -1.23,0.23 -6.97,3.24 -8.18,3.93 -6.89,3.93 -12.08,7.23 -17.6,12.82 -8.8,8.95 -7.8,11.2 -7.93,22.75 -0.09,7.95 -0.35,16.35 -0.19,24.33z"/>
   <path fill="#010101" d="M856.03 52.42c3.26,-1.02 4.46,3.97 1.33,4.7 -3.17,0.75 -4.32,-3.77 -1.33,-4.7zm-0.28 -3.74c-8.1,1.42 -6.05,13.47 2.05,12.15 7.89,-1.29 6,-13.56 -2.05,-12.15z"/>
   <path fill="#010101" d="M856.06 35.38c3.29,-1.04 4.23,4.01 1.3,4.69 -3.03,0.71 -4.46,-3.7 -1.3,-4.69zm-0.55 -3.69c-8.33,1.92 -5.15,13.8 2.63,12.03 2.94,-0.68 5.44,-3.67 4.6,-7.43 -0.64,-2.92 -3.62,-5.43 -7.23,-4.6z"/>
   <path fill="#E4E4E4" d="M853.02 72.83c0.15,1.74 0.9,3.75 1.34,5.33 1.26,-0.55 3.33,-2.12 4.63,-2.96 1.53,-0.98 3.18,-2.02 4.73,-3.09 0.05,-0.72 -0.04,-3.56 -0.58,-3.83 -0.18,-0.09 -2.88,1.17 -3.32,1.38 -1.86,0.88 -5.4,2.17 -6.8,3.17z"/>
   <path fill="#E4E4E4" d="M859.3 86.47c1.21,-0.84 7.35,-7.02 7.61,-7.68 -0.27,-0.54 -1.44,-2.23 -1.86,-2.59 -1.17,0.74 -8.31,5.25 -8.76,5.88 0.41,1.35 2.17,3.92 3.01,4.39z"/>
   <path fill="#E4E4E4" d="M862.89 88.86c1.29,0.91 6.88,1.01 8.74,0.89l0 -7.76c-1.83,-0.57 -1.6,-0.73 -2.67,0.51 -0.65,0.75 -1.41,1.29 -2.08,2.02 -1.24,1.36 -2.97,3.02 -3.99,4.34z"/>
   <path fill="#E4E4E4" d="M879.62 89.48c0.28,-1.15 0.32,-5.85 0.17,-7.2l-4.02 0.04 0 7.41 3.85 -0.25z"/>
   <path fill="#E4E4E4" d="M856.03 52.42c-2.99,0.93 -1.84,5.45 1.33,4.7 3.13,-0.73 1.93,-5.72 -1.33,-4.7z"/>
   <path fill="#E4E4E4" d="M856.06 35.38c-3.16,0.99 -1.73,5.4 1.3,4.69 2.93,-0.68 1.99,-5.73 -1.3,-4.69z"/>
  </g>
 </g>
</svg>
