<?xml version="1.0" encoding="UTF-8"?>
<!DOCTYPE svg PUBLIC "-//W3C//DTD SVG 1.1//EN" "http://www.w3.org/Graphics/SVG/1.1/DTD/svg11.dtd">
<!-- Creator: CorelDRAW -->
<svg xmlns="http://www.w3.org/2000/svg" xml:space="preserve" width="1285px" height="104px" version="1.1" shape-rendering="geometricPrecision" text-rendering="geometricPrecision" image-rendering="optimizeQuality" fill-rule="evenodd" clip-rule="evenodd"
viewBox="0 0 1172.61 95.11"
 xmlns:xlink="http://www.w3.org/1999/xlink"
 xmlns:xodm="http://www.corel.com/coreldraw/odm/2003">
 <defs>
   <clipPath id="id0">
    <path d="M33.13 14.42l1106.35 0c18.23,0 33.13,14.91 33.13,33.13l0 0c0,18.23 -14.9,33.13 -33.13,33.13l-1106.35 0c-18.22,0 -33.13,-14.9 -33.13,-33.13l0 0c0,-18.22 14.91,-33.13 33.13,-33.13z"/>
   </clipPath>
 </defs>
 <g id="Camada_x0020_1">
  <metadata id="CorelCorpID_0Corel-Layer"/>
  <path fill="#B3B3B3" d="M33.13 14.42l1106.35 0c18.23,0 33.13,14.91 33.13,33.13l0 0c0,18.23 -14.9,33.13 -33.13,33.13l-1106.35 0c-18.22,0 -33.13,-14.9 -33.13,-33.13l0 0c0,-18.22 14.91,-33.13 33.13,-33.13z"/>
  <g clip-path="url(#id0)">
   <g id="_2303133259456">
    <rect fill="#00C84E" x="-103.34" y="2.37" width="1230.22" height="90.36"/>
   </g>
  </g>
  <path fill="none" d="M33.13 14.42l1106.35 0c18.23,0 33.13,14.91 33.13,33.13l0 0c0,18.23 -14.9,33.13 -33.13,33.13l-1106.35 0c-18.22,0 -33.13,-14.9 -33.13,-33.13l0 0c0,-18.22 14.91,-33.13 33.13,-33.13z"/>
  <g id="_2303133259744">
   <path fill="#010101" d="M1130.69 88.93c1.02,-1.32 2.75,-2.98 3.99,-4.34 0.67,-0.73 1.44,-1.27 2.09,-2.03 1.07,-1.24 0.84,-1.08 2.67,-0.51l0 7.77c-1.86,0.13 -7.46,0.02 -8.75,-0.89zm16.75 0.62l-3.86 0.25 0 -7.41 4.02 -0.05c0.15,1.36 0.11,6.06 -0.16,7.21zm-20.35 -3.01c-0.84,-0.47 -2.59,-3.04 -3,-4.39 0.45,-0.63 7.6,-5.15 8.76,-5.89 0.42,0.36 1.6,2.05 1.86,2.59 -0.25,0.66 -6.4,6.85 -7.62,7.69zm-6.28 -13.65c1.41,-1 4.94,-2.3 6.81,-3.18 0.44,-0.2 3.14,-1.47 3.32,-1.38 0.54,0.27 0.63,3.11 0.58,3.84 -1.55,1.07 -3.2,2.11 -4.73,3.09 -1.3,0.84 -3.37,2.41 -4.63,2.97 -0.44,-1.59 -1.2,-3.6 -1.35,-5.34zm-7.54 -1.36c-0.15,-7.99 0.1,-16.4 0.2,-24.36 0.13,-11.55 -0.88,-13.81 7.94,-22.76 5.51,-5.6 10.71,-8.89 17.61,-12.83 1.21,-0.69 6.95,-3.7 8.18,-3.93 -1.4,2.92 -11.61,14.67 -13.54,22.42 -1.19,4.78 -1.17,11.54 -1.17,16.69 0,4.07 -0.51,9.05 1.36,12.17 0.48,0.8 1.49,2.01 1.66,2.64l-22.24 9.96zm-21.03 9.47c-0.2,-1.41 0.04,-28.68 0.04,-30.95 0,-10.79 -0.52,-15.78 5.87,-25.45 3.65,-5.51 10.54,-12.1 16.4,-14.86 7.09,-3.34 18.44,-4.28 27.15,-4.28 -0.76,0.65 -3.93,2.18 -5.02,2.75 -4.01,2.09 -10.79,6.52 -13.99,9.46 -5.23,4.81 -11.63,10.53 -13.08,18.18 -0.69,3.66 -0.13,11.15 -0.28,15.34 -0.27,7.05 -0.04,14.24 -0.17,21.31 -0.02,1.06 0.13,0.96 -0.64,1.35l-16.28 7.15zm-5.36 -38.97l-0.06 39.29c0,2.99 2.68,5.47 5.92,5.16 1.84,-0.17 6.02,-2.42 7.9,-3.23 2.16,-0.91 14.39,-6.79 15.51,-6.83 1.48,5.8 1.37,3.38 2.74,6.94 1.08,2.8 3.49,7.05 6.26,8.14 2.34,0.92 1.24,1.13 2.85,2.07 2.75,1.62 8.07,1.54 11.44,1.54 0.95,0 1.52,-0.36 2.22,-0.32 0.83,0.04 1.32,0.32 2.51,0.28 1.45,-0.04 3.94,-0.07 5.21,-0.52 4.35,-1.55 3.53,-6.83 3.53,-12.2 0,-2.32 -1.5,-4.24 -3.22,-4.91 -2.27,-0.87 -5.03,-0.25 -7.36,-0.29 -3.01,-0.05 -3.48,-1.61 -4.63,-3.35 -0.97,-1.47 -0.75,-0.87 -0.96,-2.95 -0.12,-1.25 -0.4,-2.49 -0.43,-3.81 5.22,-1.75 5.71,-6.12 3.62,-8.84 -1.65,-2.13 -1.87,-2.01 -1.94,-5.47 -0.13,-6.26 -0.46,-14.59 0.7,-20.51 0.98,-5.01 7.23,-13.56 10.27,-17.69 1.05,-1.43 1.94,-2.78 2.92,-4.08 1,-1.34 2.32,-2.57 2.32,-4.83 0,-6.62 -7.3,-5.56 -12.71,-5.56 -6.95,0 -15.3,0.77 -21.81,2.26 -7.5,1.71 -11.07,4.47 -15.86,8.2 -6.84,5.34 -16.94,17.58 -16.94,31.51z"/>
   <path fill="#E4E4E4" d="M1108.52 73.85c0.77,-0.39 0.62,-0.29 0.64,-1.35 0.13,-7.07 -0.1,-14.26 0.17,-21.31 0.15,-4.19 -0.41,-11.68 0.28,-15.34 1.45,-7.65 7.85,-13.37 13.08,-18.18 3.2,-2.94 9.98,-7.37 13.99,-9.46 1.09,-0.57 4.26,-2.1 5.02,-2.75 -8.71,0 -20.06,0.94 -27.15,4.28 -5.86,2.76 -12.75,9.35 -16.4,14.86 -6.39,9.67 -5.87,14.66 -5.87,25.45 0,2.27 -0.24,29.54 -0.04,30.95l16.28 -7.15z"/>
   <path fill="#939393" d="M1123.55 48.72c8.05,-1.42 9.94,10.87 2.04,12.16 -8.1,1.32 -10.15,-10.74 -2.04,-12.16zm-0.25 -17c3.62,-0.83 6.6,1.68 7.24,4.6 0.84,3.77 -1.67,6.76 -4.61,7.43 -7.78,1.78 -10.96,-10.11 -2.63,-12.03zm-10.03 39.81l22.24 -9.96c-0.17,-0.63 -1.18,-1.84 -1.66,-2.64 -1.87,-3.12 -1.36,-8.1 -1.36,-12.17 0,-5.15 -0.02,-11.91 1.17,-16.69 1.93,-7.75 12.14,-19.5 13.54,-22.42 -1.23,0.23 -6.97,3.24 -8.18,3.93 -6.9,3.94 -12.1,7.23 -17.61,12.83 -8.82,8.95 -7.81,11.21 -7.94,22.76 -0.1,7.96 -0.35,16.37 -0.2,24.36z"/>
   <path fill="#010101" d="M1123.83 52.46c3.26,-1.02 4.46,3.97 1.33,4.71 -3.18,0.75 -4.33,-3.78 -1.33,-4.71zm-0.28 -3.74c-8.11,1.42 -6.06,13.48 2.04,12.16 7.9,-1.29 6.01,-13.58 -2.04,-12.16z"/>
   <path fill="#010101" d="M1123.85 35.41c3.3,-1.04 4.24,4.01 1.31,4.69 -3.04,0.71 -4.47,-3.7 -1.31,-4.69zm-0.55 -3.69c-8.33,1.92 -5.15,13.81 2.63,12.03 2.94,-0.67 5.45,-3.66 4.61,-7.43 -0.64,-2.92 -3.62,-5.43 -7.24,-4.6z"/>
   <path fill="#E4E4E4" d="M1120.81 72.89c0.15,1.74 0.91,3.75 1.35,5.34 1.26,-0.56 3.33,-2.13 4.63,-2.97 1.53,-0.98 3.18,-2.02 4.73,-3.09 0.05,-0.73 -0.04,-3.57 -0.58,-3.84 -0.18,-0.09 -2.88,1.18 -3.32,1.38 -1.87,0.88 -5.4,2.18 -6.81,3.18z"/>
   <path fill="#E4E4E4" d="M1127.09 86.54c1.22,-0.84 7.37,-7.03 7.62,-7.69 -0.26,-0.54 -1.44,-2.23 -1.86,-2.59 -1.16,0.74 -8.31,5.26 -8.76,5.89 0.41,1.35 2.16,3.92 3,4.39z"/>
   <path fill="#E4E4E4" d="M1130.69 88.93c1.29,0.91 6.89,1.02 8.75,0.89l0 -7.77c-1.83,-0.57 -1.6,-0.73 -2.67,0.51 -0.65,0.76 -1.42,1.3 -2.09,2.03 -1.24,1.36 -2.97,3.02 -3.99,4.34z"/>
   <path fill="#E4E4E4" d="M1147.44 89.55c0.27,-1.15 0.31,-5.85 0.16,-7.21l-4.02 0.05 0 7.41 3.86 -0.25z"/>
   <path fill="#E4E4E4" d="M1123.83 52.46c-3,0.93 -1.85,5.46 1.33,4.71 3.13,-0.74 1.93,-5.73 -1.33,-4.71z"/>
   <path fill="#E4E4E4" d="M1123.85 35.41c-3.16,0.99 -1.73,5.4 1.31,4.69 2.93,-0.68 1.99,-5.73 -1.31,-4.69z"/>
   <path fill="#010101" d="M1130.69 88.93c1.02,-1.32 2.75,-2.98 3.99,-4.34 0.67,-0.73 1.44,-1.27 2.09,-2.03 1.07,-1.24 0.84,-1.08 2.67,-0.51l0 7.77c-1.86,0.13 -7.46,0.02 -8.75,-0.89zm16.75 0.62l-3.86 0.25 0 -7.41 4.02 -0.05c0.15,1.36 0.11,6.06 -0.16,7.21zm-20.35 -3.01c-0.84,-0.47 -2.59,-3.04 -3,-4.39 0.45,-0.63 7.6,-5.15 8.76,-5.89 0.42,0.36 1.6,2.05 1.86,2.59 -0.25,0.66 -6.4,6.85 -7.62,7.69zm-6.28 -13.65c1.41,-1 4.94,-2.3 6.81,-3.18 0.44,-0.2 3.14,-1.47 3.32,-1.38 0.54,0.27 0.63,3.11 0.58,3.84 -1.55,1.07 -3.2,2.11 -4.73,3.09 -1.3,0.84 -3.37,2.41 -4.63,2.97 -0.44,-1.59 -1.2,-3.6 -1.35,-5.34zm-7.54 -1.36c-0.15,-7.99 0.1,-16.4 0.2,-24.36 0.13,-11.55 -0.88,-13.81 7.94,-22.76 5.51,-5.6 10.71,-8.89 17.61,-12.83 1.21,-0.69 6.95,-3.7 8.18,-3.93 -1.4,2.92 -11.61,14.67 -13.54,22.42 -1.19,4.78 -1.17,11.54 -1.17,16.69 0,4.07 -0.51,9.05 1.36,12.17 0.48,0.8 1.49,2.01 1.66,2.64l-22.24 9.96zm-21.03 9.47c-0.2,-1.41 0.04,-28.68 0.04,-30.95 0,-10.79 -0.52,-15.78 5.87,-25.45 3.65,-5.51 10.54,-12.1 16.4,-14.86 7.09,-3.34 18.44,-4.28 27.15,-4.28 -0.76,0.65 -3.93,2.18 -5.02,2.75 -4.01,2.09 -10.79,6.52 -13.99,9.46 -5.23,4.81 -11.63,10.53 -13.08,18.18 -0.69,3.66 -0.13,11.15 -0.28,15.34 -0.27,7.05 -0.04,14.24 -0.17,21.31 -0.02,1.06 0.13,0.96 -0.64,1.35l-16.28 7.15zm-5.36 -38.97l-0.06 39.29c0,2.99 2.68,5.47 5.92,5.16 1.84,-0.17 6.02,-2.42 7.9,-3.23 2.16,-0.91 14.39,-6.79 15.51,-6.83 1.48,5.8 1.37,3.38 2.74,6.94 1.08,2.8 3.49,7.05 6.26,8.14 2.34,0.92 1.24,1.13 2.85,2.07 2.75,1.62 8.07,1.54 11.44,1.54 0.95,0 1.52,-0.36 2.22,-0.32 0.83,0.04 1.32,0.32 2.51,0.28 1.45,-0.04 3.94,-0.07 5.21,-0.52 4.35,-1.55 3.53,-6.83 3.53,-12.2 0,-2.32 -1.5,-4.24 -3.22,-4.91 -2.27,-0.87 -5.03,-0.25 -7.36,-0.29 -3.01,-0.05 -3.48,-1.61 -4.63,-3.35 -0.97,-1.47 -0.75,-0.87 -0.96,-2.95 -0.12,-1.25 -0.4,-2.49 -0.43,-3.81 5.22,-1.75 5.71,-6.12 3.62,-8.84 -1.65,-2.13 -1.87,-2.01 -1.94,-5.47 -0.13,-6.26 -0.46,-14.59 0.7,-20.51 0.98,-5.01 7.23,-13.56 10.27,-17.69 1.05,-1.43 1.94,-2.78 2.92,-4.08 1,-1.34 2.32,-2.57 2.32,-4.83 0,-6.62 -7.3,-5.56 -12.71,-5.56 -6.95,0 -15.3,0.77 -21.81,2.26 -7.5,1.71 -11.07,4.47 -15.86,8.2 -6.84,5.34 -16.94,17.58 -16.94,31.51z"/>
   <path fill="#E4E4E4" d="M1108.52 73.85c0.77,-0.39 0.62,-0.29 0.64,-1.35 0.13,-7.07 -0.1,-14.26 0.17,-21.31 0.15,-4.19 -0.41,-11.68 0.28,-15.34 1.45,-7.65 7.85,-13.37 13.08,-18.18 3.2,-2.94 9.98,-7.37 13.99,-9.46 1.09,-0.57 4.26,-2.1 5.02,-2.75 -8.71,0 -20.06,0.94 -27.15,4.28 -5.86,2.76 -12.75,9.35 -16.4,14.86 -6.39,9.67 -5.87,14.66 -5.87,25.45 0,2.27 -0.24,29.54 -0.04,30.95l16.28 -7.15z"/>
   <path fill="#939393" d="M1123.55 48.72c8.05,-1.42 9.94,10.87 2.04,12.16 -8.1,1.32 -10.15,-10.74 -2.04,-12.16zm-0.25 -17c3.62,-0.83 6.6,1.68 7.24,4.6 0.84,3.77 -1.67,6.76 -4.61,7.43 -7.78,1.78 -10.96,-10.11 -2.63,-12.03zm-10.03 39.81l22.24 -9.96c-0.17,-0.63 -1.18,-1.84 -1.66,-2.64 -1.87,-3.12 -1.36,-8.1 -1.36,-12.17 0,-5.15 -0.02,-11.91 1.17,-16.69 1.93,-7.75 12.14,-19.5 13.54,-22.42 -1.23,0.23 -6.97,3.24 -8.18,3.93 -6.9,3.94 -12.1,7.23 -17.61,12.83 -8.82,8.95 -7.81,11.21 -7.94,22.76 -0.1,7.96 -0.35,16.37 -0.2,24.36z"/>
   <path fill="#010101" d="M1123.83 52.46c3.26,-1.02 4.46,3.97 1.33,4.71 -3.18,0.75 -4.33,-3.78 -1.33,-4.71zm-0.28 -3.74c-8.11,1.42 -6.06,13.48 2.04,12.16 7.9,-1.29 6.01,-13.58 -2.04,-12.16z"/>
   <path fill="#010101" d="M1123.85 35.41c3.3,-1.04 4.24,4.01 1.31,4.69 -3.04,0.71 -4.47,-3.7 -1.31,-4.69zm-0.55 -3.69c-8.33,1.92 -5.15,13.81 2.63,12.03 2.94,-0.67 5.45,-3.66 4.61,-7.43 -0.64,-2.92 -3.62,-5.43 -7.24,-4.6z"/>
   <path fill="#E4E4E4" d="M1120.81 72.89c0.15,1.74 0.91,3.75 1.35,5.34 1.26,-0.56 3.33,-2.13 4.63,-2.97 1.53,-0.98 3.18,-2.02 4.73,-3.09 0.05,-0.73 -0.04,-3.57 -0.58,-3.84 -0.18,-0.09 -2.88,1.18 -3.32,1.38 -1.87,0.88 -5.4,2.18 -6.81,3.18z"/>
   <path fill="#E4E4E4" d="M1127.09 86.54c1.22,-0.84 7.37,-7.03 7.62,-7.69 -0.26,-0.54 -1.44,-2.23 -1.86,-2.59 -1.16,0.74 -8.31,5.26 -8.76,5.89 0.41,1.35 2.16,3.92 3,4.39z"/>
   <path fill="#E4E4E4" d="M1130.69 88.93c1.29,0.91 6.89,1.02 8.75,0.89l0 -7.77c-1.83,-0.57 -1.6,-0.73 -2.67,0.51 -0.65,0.76 -1.42,1.3 -2.09,2.03 -1.24,1.36 -2.97,3.02 -3.99,4.34z"/>
   <path fill="#E4E4E4" d="M1147.44 89.55c0.27,-1.15 0.31,-5.85 0.16,-7.21l-4.02 0.05 0 7.41 3.86 -0.25z"/>
   <path fill="#E4E4E4" d="M1123.83 52.46c-3,0.93 -1.85,5.46 1.33,4.71 3.13,-0.74 1.93,-5.73 -1.33,-4.71z"/>
   <path fill="#E4E4E4" d="M1123.85 35.41c-3.16,0.99 -1.73,5.4 1.31,4.69 2.93,-0.68 1.99,-5.73 -1.31,-4.69z"/>
  </g>
 </g>
</svg>
