<?xml version="1.0" encoding="UTF-8"?>
<!DOCTYPE svg PUBLIC "-//W3C//DTD SVG 1.1//EN" "http://www.w3.org/Graphics/SVG/1.1/DTD/svg11.dtd">
<!-- Creator: CorelDRAW -->
<svg xmlns="http://www.w3.org/2000/svg" xml:space="preserve" width="186px" height="193px" version="1.1" shape-rendering="geometricPrecision" text-rendering="geometricPrecision" image-rendering="optimizeQuality" fill-rule="evenodd" clip-rule="evenodd"
viewBox="0 0 184.33 191.39"
 xmlns:xlink="http://www.w3.org/1999/xlink"
 xmlns:xodm="http://www.corel.com/coreldraw/odm/2003">
 <g id="Camada_x0020_1">
  <metadata id="CorelCorpID_0Corel-Layer"/>
  <g id="_1511569864144">
   <path fill="white" fill-rule="nonzero" d="M48.26 46.9c0.52,-2.29 1.76,-4.45 3.72,-6.09l-0.02 -0.01c1.3,-1.08 2.76,-1.82 4.27,-2.22 0.52,-0.14 1.04,-0.24 1.57,-0.3 1.01,-0.12 2.02,-0.11 2.98,0.03l0.82 0.16 29.8 4.74 56.14 -41.07c2.47,-1.81 5.42,-2.44 8.24,-2.01l0.01 -0.03c2.83,0.43 5.5,1.96 7.32,4.44 0.26,0.36 0.5,0.73 0.71,1.1 0.26,0.45 0.47,0.88 0.64,1.31 0.22,0.53 0.39,1.06 0.51,1.6 0.1,0.42 0.18,0.82 0.23,1.23l9.04 71.91c0.05,0.37 0.07,0.74 0.08,1.1 0.06,2.65 -0.82,5.16 -2.39,7.15 -0.5,0.64 -1.06,1.2 -1.67,1.68 -1.6,1.34 -3.58,2.24 -5.79,2.51 -0.55,0.06 -1.1,0.08 -1.64,0.06 -0.61,-0.02 -1.23,-0.09 -1.85,-0.22l0 0.02c-1.07,-0.21 -2.14,-0.61 -3.13,-1.16l-18.04 -8.61 -8.22 16c2.66,-1.31 5.61,-1.47 8.24,-0.64 0.69,0.21 1.33,0.49 1.94,0.82 1.89,1.02 3.51,2.59 4.59,4.64l0.01 -0.01c0.45,0.84 0.79,1.74 1.01,2.69 0.14,0.63 0.22,1.25 0.25,1.87l0.57 16.37 24.96 0c3.09,0 5.87,1.25 7.9,3.27 2.02,2.02 3.27,4.82 3.27,7.9 0,1.61 -0.39,3.21 -1.09,4.71 -0.59,1.26 -1.38,2.37 -2.34,3.3l-40.98 42.81c-1.96,2.04 -4.49,3.18 -7.1,3.4 -2.58,0.22 -5.25,-0.48 -7.51,-2.13l-69.53 -50.91c-1.02,-0.57 -2.01,-1.2 -2.97,-1.88 -1.2,-0.86 -2.34,-1.79 -3.39,-2.78 -1.03,-0.97 -2.03,-2.04 -2.98,-3.21 -0.67,-0.83 -1.3,-1.68 -1.88,-2.54l-21.9 4.08c-3.03,0.56 -5.97,-0.16 -8.29,-1.74 -0.49,-0.33 -0.93,-0.7 -1.34,-1.09 -1.68,-1.57 -2.88,-3.68 -3.33,-6.11l-0.01 -0.04 -0.03 0c-0.23,-1.28 -0.22,-2.6 0,-3.88 0.12,-0.69 0.3,-1.34 0.54,-1.96 0.22,-0.59 0.49,-1.16 0.81,-1.71l14.77 -25.53 -22.97 -25.84c-2.05,-2.3 -2.96,-5.22 -2.79,-8.06l0.08 -0.82c0.34,-2.57 1.56,-5.02 3.63,-6.86 1.12,-1 2.39,-1.72 3.71,-2.19l0.56 -0.18c1.25,-0.36 2.55,-0.51 3.84,-0.42l36.42 1.35z"/>
   <g>
    <polygon fill="#FC6D00" points="13.84,57.94 88.38,60.68 153.21,13.25 161.73,81.07 134.34,67.98 116.99,101.77 91.12,87.46 53.98,113.64 22.93,119.42 40.89,88.37 "/>
    <path fill="#005582" d="M107.89 46.4l9.39 -6.87 5.11 17.68c0,0 -8.64,-6.2 -14.5,-10.81zm12.31 -9l10.48 -7.67 1.65 25.22 -12.13 -17.55zm13.85 -10.13l19.16 -14.02 5.4 42.98 -16.49 -7.6 -8.07 -21.36zm-110.95 91.86l11.4 -19.71 30.65 -9.78 -8.51 22.12 -33.54 7.37zm17.17 -31.46l-14.16 -15.92c13.26,0.91 37.93,2.14 37.93,2.14l-23.77 13.78z"/>
    <polygon fill="#005582" points="62,50.99 81.74,74.72 112.5,71.68 112.12,58.96 "/>
    <circle fill="#CF0000" cx="92.93" cy="75.82" r="8.68"/>
    <path fill="#E8D7BC" d="M62.39 127.89l69.37 50.79 38.66 -40.38 -34.09 0 -0.92 -26.18 -29.52 15.52 -14.85 -12.13c0.5,-1.76 0.77,-3.62 0.77,-5.54 0,-11.14 -9.03,-20.16 -20.17,-20.16 -11.14,0 -20.16,9.02 -20.16,20.16 0,7.8 4.43,14.57 10.91,17.92z"/>
    <polygon fill="#E6BA37" points="158.72,150.52 170.42,138.3 136.33,138.3 135.41,112.12 105.89,127.64 91.6,115.97 91.43,116.07 85.29,122.01 103.48,137.55 126.6,126.61 126.36,149.49 "/>
    <path fill="#C2B5A1" d="M73.78 131.66l6.45 -4.66 9.74 6.86 -6.73 5.62 -9.46 -7.82zm51.03 28.95l10.97 8.91 5.9 -6.72 -10.56 -8.64 -6.31 6.45zm-20.99 -15.09l12.9 11.24 6.03 -6.17 -11.25 -10.56 -7.68 5.49z"/>
    <path fill="black" fill-rule="nonzero" d="M63.57 126.28l67.96 49.76 34.21 -35.74 -30.54 0c-0.46,0 -0.83,-0.37 -0.83,-0.83l-0.84 -24.11 -27.4 14.41c-0.31,0.16 -0.68,0.11 -0.93,-0.11l-13.34 -10.91 -0.47 0.68c-0.37,0.5 -0.76,0.96 -1.18,1.38l-0.05 0.04c-1.12,1.11 -2.45,2 -3.92,2.61 -1.45,0.6 -3.03,0.93 -4.68,0.93 -1.65,0 -3.23,-0.33 -4.67,-0.92 -1.51,-0.63 -2.86,-1.54 -3.98,-2.66 -2.21,-2.21 -3.58,-5.27 -3.58,-8.65 0,-1.65 0.33,-3.23 0.93,-4.67l0.02 -0.05c0.62,-1.48 1.52,-2.81 2.63,-3.92l0.68 -0.63c0.34,-0.3 0.86,-0.27 1.17,0.07l0.72 1.02 0.69 1.03c0.22,0.34 0.15,0.78 -0.13,1.05l-0.31 0.29c-0.75,0.76 -1.36,1.66 -1.78,2.66 -0.4,0.97 -0.62,2.03 -0.62,3.15 0,1.13 0.22,2.19 0.62,3.16 0.42,1 1.03,1.9 1.79,2.66l0.04 0.05c1.59,1.56 3.68,2.35 5.78,2.35 2.11,0 4.23,-0.8 5.82,-2.4l0.05 -0.04c0.32,-0.33 0.62,-0.68 0.88,-1.05 0.2,-0.3 0.39,-0.61 0.56,-0.94 0,-0.09 0.01,-0.17 0.03,-0.25l0.23 -0.77c0.11,-0.4 0.21,-0.8 0.29,-1.2 0.09,-0.41 0.16,-0.82 0.22,-1.23 0.05,-0.39 0.1,-0.81 0.13,-1.24 0.02,-0.41 0.04,-0.84 0.04,-1.29 0,-2.47 -0.49,-4.82 -1.38,-6.95 -0.91,-2.22 -2.26,-4.22 -3.94,-5.89l-0.04 -0.05c-1.67,-1.65 -3.66,-2.99 -5.86,-3.9 -2.13,-0.88 -4.48,-1.37 -6.95,-1.37 -2.47,0 -4.82,0.49 -6.95,1.37 -2.22,0.91 -4.22,2.27 -5.89,3.94l-0.05 0.04c-1.65,1.67 -2.99,3.66 -3.9,5.86 -0.89,2.14 -1.37,4.48 -1.37,6.95 0,1.71 0.23,3.36 0.66,4.91 0.45,1.61 1.12,3.13 1.97,4.52 0.87,1.43 1.93,2.73 3.14,3.86 1.21,1.13 2.57,2.09 4.05,2.86l0.27 0.16zm29.36 -61.14c1.44,0 2.82,0.29 4.08,0.81 1.31,0.55 2.49,1.34 3.47,2.32l0.05 0.05c0.4,0.41 0.78,0.86 1.11,1.33 0.24,0.33 0.45,0.68 0.65,1.04l8.16 -0.81 -0.27 -9.21 -43.26 -6.88 15.68 18.84 0.15 -0.01c0.23,-0.73 0.53,-1.43 0.9,-2.08 0.48,-0.83 1.06,-1.59 1.73,-2.26l0.05 -0.05c0.98,-0.96 2.14,-1.74 3.42,-2.27 1.26,-0.53 2.64,-0.82 4.08,-0.82zm10.61 9.43l0.01 0.17c0.04,0.37 0.06,0.74 0.06,1.08 0,1.44 -0.29,2.82 -0.81,4.08 -0.54,1.32 -1.34,2.49 -2.32,3.47 -1.81,1.81 -4.27,2.98 -7,3.12l22.68 12.54 16.92 -32.97c0.21,-0.4 0.71,-0.56 1.11,-0.35l25.1 11.99 -7.64 -60.84 -52.36 38.04 14.1 2.25c0.4,0.06 0.68,0.4 0.69,0.79l0.44 14.77c0.02,0.44 -0.31,0.81 -0.74,0.85l-10.24 1.01zm-13.82 11.44c-0.29,-0.1 -0.58,-0.2 -0.87,-0.32 -1.31,-0.54 -2.49,-1.34 -3.47,-2.32l-0.04 -0.05c-0.96,-0.97 -1.74,-2.13 -2.28,-3.41l-0.01 -0.05c-0.41,-1 -0.68,-2.08 -0.76,-3.19l-0.97 0.09c-0.29,0.03 -0.57,-0.1 -0.74,-0.32l-12.06 -14.5 -50.09 -1.84 24.52 27.58c0.24,0.28 0.27,0.68 0.08,0.98l-16.2 28.01 22.78 -4.24 -0.07 -0.83c-0.04,-0.55 -0.06,-1.09 -0.06,-1.63 0,-2.99 0.59,-5.86 1.68,-8.47l0.02 -0.05c1.12,-2.7 2.76,-5.13 4.79,-7.15l0.05 -0.05c2.03,-2.02 4.46,-3.65 7.15,-4.76 2.62,-1.08 5.48,-1.68 8.47,-1.68 2.1,0 4.15,0.29 6.08,0.84l0.04 0.01c1.8,0.52 3.51,1.26 5.09,2.19l6.87 -4.84zm7.94 -14.91c-0.62,-0.62 -1.36,-1.12 -2.17,-1.45 -0.78,-0.33 -1.65,-0.51 -2.56,-0.51 -0.91,0 -1.78,0.18 -2.55,0.5 -0.82,0.34 -1.56,0.84 -2.17,1.45 -0.62,0.62 -1.12,1.36 -1.46,2.17 -0.32,0.78 -0.5,1.65 -0.5,2.56 0,0.91 0.18,1.78 0.5,2.56 0.34,0.81 0.84,1.55 1.46,2.17l0.04 0.04c0.6,0.6 1.33,1.08 2.12,1.41l0.04 0.02c0.77,0.31 1.63,0.48 2.52,0.48 0.91,0 1.78,-0.18 2.56,-0.5 0.81,-0.34 1.55,-0.84 2.17,-1.45 1.2,-1.21 1.95,-2.88 1.95,-4.73 0,-0.91 -0.18,-1.78 -0.5,-2.56 -0.34,-0.81 -0.83,-1.55 -1.45,-2.16zm-32.56 -13.27l-6.62 -7.96c-0.29,-0.35 -0.24,-0.87 0.11,-1.16 0.19,-0.16 0.43,-0.21 0.65,-0.18l34.79 5.54 59.61 -43.61c0.36,-0.27 0.88,-0.19 1.15,0.18 0.09,0.12 0.14,0.25 0.15,0.39l9.04 71.92c0.06,0.45 -0.27,0.86 -0.72,0.92 -0.18,0.02 -0.36,-0.02 -0.51,-0.11l-27.52 -13.15 -17.02 33.14c-0.21,0.4 -0.7,0.56 -1.11,0.36l-25.86 -14.3 -4.97 3.51 0.12 0.11c0.33,0.3 0.64,0.59 0.92,0.87l0.05 0.05c2.02,2.03 3.65,4.46 4.77,7.15 1.08,2.62 1.68,5.48 1.68,8.47l-0.04 1.17 -0.05 0.79c0.05,0.12 0.07,0.25 0.07,0.38 -0.01,0.53 -0.05,1.06 -0.12,1.57 -0.05,0.35 -0.12,0.7 -0.2,1.05l12.66 10.33 30 -15.77c0.41,-0.21 0.9,-0.06 1.12,0.34 0.06,0.13 0.09,0.27 0.09,0.4l0.91 26.07 34.91 0c0.46,0 0.83,0.37 0.83,0.83 0,0.25 -0.12,0.48 -0.3,0.63l-41.2 43.04c-0.29,0.3 -0.75,0.34 -1.08,0.1l-70.09 -51.32c-1.77,-0.93 -3.39,-2.09 -4.83,-3.44 -1.46,-1.37 -2.74,-2.94 -3.79,-4.66 -0.55,-0.91 -1.05,-1.86 -1.46,-2.85l-0.02 -0.05c-0.31,-0.73 -0.58,-1.48 -0.81,-2.25l-29.61 5.52c-0.45,0.08 -0.88,-0.22 -0.96,-0.67 -0.04,-0.2 0,-0.39 0.1,-0.56l18.5 -32 -27.91 -31.4c-0.31,-0.34 -0.28,-0.86 0.06,-1.17 0.18,-0.15 0.39,-0.22 0.6,-0.2l53.91 1.98z"/>
   </g>
  </g>
 </g>
</svg>
