<?xml version="1.0" encoding="UTF-8"?>
<!DOCTYPE svg PUBLIC "-//W3C//DTD SVG 1.1//EN" "http://www.w3.org/Graphics/SVG/1.1/DTD/svg11.dtd">
<!-- Creator: CorelDRAW -->
<svg xmlns="http://www.w3.org/2000/svg" xml:space="preserve" width="106px" height="106px" version="1.1" shape-rendering="geometricPrecision" text-rendering="geometricPrecision" image-rendering="optimizeQuality" fill-rule="evenodd" clip-rule="evenodd"
viewBox="0 0 104.35 104.35"
 xmlns:xlink="http://www.w3.org/1999/xlink"
 xmlns:xodm="http://www.corel.com/coreldraw/odm/2003">
 <g id="Camada_x0020_1">
  <metadata id="CorelCorpID_0Corel-Layer"/>
  <g id="_2302839953248">
   <path fill="#010101" d="M63.12 96.68c1.1,-1.42 2.96,-3.22 4.3,-4.68 0.72,-0.78 1.54,-1.36 2.24,-2.17 1.15,-1.34 0.9,-1.17 2.87,-0.55l0 8.35c-2,0.14 -8.02,0.02 -9.41,-0.95zm18.01 0.66l-4.15 0.27 0 -7.97 4.33 -0.05c0.16,1.45 0.12,6.51 -0.18,7.75zm-21.88 -3.24c-0.9,-0.5 -2.79,-3.27 -3.23,-4.72 0.48,-0.68 8.17,-5.54 9.43,-6.33 0.45,0.38 1.71,2.2 2,2.79 -0.28,0.71 -6.89,7.35 -8.2,8.26zm-6.75 -14.68c1.51,-1.07 5.31,-2.47 7.32,-3.42 0.47,-0.22 3.38,-1.58 3.57,-1.48 0.58,0.29 0.68,3.34 0.62,4.13 -1.67,1.15 -3.44,2.26 -5.08,3.32 -1.41,0.9 -3.63,2.6 -4.99,3.19 -0.47,-1.7 -1.28,-3.87 -1.44,-5.74zm-8.11 -1.47c-0.17,-8.58 0.11,-17.63 0.21,-26.19 0.14,-12.42 -0.94,-14.85 8.54,-24.47 5.93,-6.03 11.52,-9.57 18.94,-13.8 1.3,-0.75 7.48,-3.99 8.8,-4.23 -1.51,3.14 -12.49,15.78 -14.57,24.11 -1.27,5.14 -1.25,12.41 -1.25,17.95 0,4.38 -0.55,9.74 1.46,13.09 0.52,0.86 1.6,2.16 1.78,2.84l-23.91 10.7zm-22.63 10.2c-0.21,-1.52 0.05,-30.86 0.05,-33.29 -0.01,-11.61 -0.56,-16.98 6.31,-27.37 3.93,-5.93 11.33,-13.02 17.65,-15.99 7.62,-3.58 19.82,-4.59 29.19,-4.59 -0.82,0.69 -4.22,2.34 -5.4,2.95 -4.31,2.24 -11.61,7.01 -15.05,10.18 -5.62,5.17 -12.5,11.32 -14.06,19.55 -0.75,3.93 -0.14,11.99 -0.31,16.49 -0.28,7.58 -0.04,15.32 -0.17,22.92 -0.02,1.15 0.13,1.04 -0.69,1.45l-17.52 7.7zm-5.76 -41.92l-0.06 42.26c0,3.21 2.88,5.88 6.36,5.55 1.98,-0.19 6.48,-2.61 8.5,-3.47 2.32,-0.99 15.47,-7.3 16.69,-7.35 1.59,6.23 1.47,3.64 2.94,7.46 1.17,3.02 3.76,7.58 6.73,8.75 2.52,0.99 1.34,1.22 3.07,2.24 2.96,1.74 8.68,1.64 12.3,1.64 1.03,0 1.63,-0.38 2.39,-0.34 0.89,0.04 1.41,0.34 2.69,0.31 1.56,-0.05 4.25,-0.08 5.61,-0.56 4.68,-1.67 3.8,-7.35 3.8,-13.12 0,-2.5 -1.61,-4.57 -3.46,-5.28 -2.45,-0.94 -5.41,-0.27 -7.92,-0.32 -3.23,-0.05 -3.75,-1.73 -4.98,-3.6 -1.05,-1.58 -0.81,-0.93 -1.03,-3.17 -0.13,-1.35 -0.44,-2.68 -0.46,-4.1 5.61,-1.88 6.13,-6.58 3.88,-9.5 -1.77,-2.3 -2,-2.17 -2.08,-5.89 -0.14,-6.73 -0.49,-15.69 0.75,-22.05 1.05,-5.39 7.78,-14.59 11.05,-19.03 1.13,-1.54 2.09,-2.99 3.14,-4.39 1.08,-1.44 2.49,-2.77 2.49,-5.2 0,-7.12 -7.85,-5.97 -13.66,-5.97 -7.48,0 -16.46,0.82 -23.46,2.42 -8.06,1.84 -11.9,4.81 -17.06,8.83 -7.36,5.74 -18.22,18.9 -18.22,33.88z"/>
   <path fill="#E4E4E4" d="M39.28 80.45c0.82,-0.41 0.67,-0.3 0.69,-1.45 0.13,-7.6 -0.11,-15.34 0.17,-22.92 0.17,-4.5 -0.44,-12.56 0.31,-16.49 1.56,-8.23 8.44,-14.38 14.06,-19.55 3.44,-3.17 10.74,-7.94 15.05,-10.18 1.18,-0.61 4.58,-2.26 5.4,-2.95 -9.37,0 -21.57,1.01 -29.19,4.59 -6.32,2.97 -13.72,10.06 -17.65,15.99 -6.87,10.39 -6.32,15.76 -6.31,27.37 0,2.43 -0.26,31.77 -0.05,33.29l17.52 -7.7z"/>
   <path fill="#939393" d="M55.44 53.42c8.66,-1.52 10.69,11.7 2.2,13.08 -8.72,1.43 -10.92,-11.55 -2.2,-13.08zm-0.27 -18.28c3.89,-0.89 7.1,1.81 7.79,4.95 0.9,4.05 -1.79,7.27 -4.96,7.99 -8.37,1.92 -11.79,-10.87 -2.83,-12.94zm-10.78 42.81l23.91 -10.7c-0.18,-0.68 -1.26,-1.98 -1.78,-2.84 -2.01,-3.35 -1.46,-8.71 -1.46,-13.09 0,-5.54 -0.02,-12.81 1.25,-17.95 2.08,-8.33 13.06,-20.97 14.57,-24.11 -1.32,0.24 -7.5,3.48 -8.8,4.23 -7.42,4.23 -13.01,7.77 -18.94,13.8 -9.48,9.62 -8.4,12.05 -8.54,24.47 -0.1,8.56 -0.38,17.61 -0.21,26.19z"/>
   <path fill="#010101" d="M55.74 57.45c3.51,-1.1 4.8,4.27 1.43,5.07 -3.41,0.8 -4.65,-4.07 -1.43,-5.07zm-0.3 -4.03c-8.72,1.53 -6.52,14.51 2.2,13.08 8.49,-1.38 6.46,-14.6 -2.2,-13.08z"/>
   <path fill="#010101" d="M55.77 39.11c3.54,-1.11 4.55,4.31 1.4,5.05 -3.27,0.76 -4.8,-3.98 -1.4,-5.05zm-0.6 -3.97c-8.96,2.07 -5.54,14.86 2.83,12.94 3.17,-0.72 5.86,-3.94 4.96,-7.99 -0.69,-3.14 -3.9,-5.84 -7.79,-4.95z"/>
   <path fill="#E4E4E4" d="M52.5 79.42c0.16,1.87 0.97,4.04 1.44,5.74 1.36,-0.59 3.58,-2.29 4.99,-3.19 1.64,-1.06 3.41,-2.17 5.08,-3.32 0.06,-0.79 -0.04,-3.84 -0.62,-4.13 -0.19,-0.1 -3.1,1.26 -3.57,1.48 -2.01,0.95 -5.81,2.35 -7.32,3.42z"/>
   <path fill="#E4E4E4" d="M59.25 94.1c1.31,-0.91 7.92,-7.55 8.2,-8.26 -0.29,-0.59 -1.55,-2.41 -2,-2.79 -1.26,0.79 -8.95,5.65 -9.43,6.33 0.44,1.45 2.33,4.22 3.23,4.72z"/>
   <path fill="#E4E4E4" d="M63.12 96.68c1.39,0.97 7.41,1.09 9.41,0.95l0 -8.35c-1.97,-0.62 -1.72,-0.79 -2.87,0.55 -0.7,0.81 -1.52,1.39 -2.24,2.17 -1.34,1.46 -3.2,3.26 -4.3,4.68z"/>
   <path fill="#E4E4E4" d="M81.13 97.34c0.3,-1.24 0.34,-6.3 0.18,-7.75l-4.33 0.05 0 7.97 4.15 -0.27z"/>
   <path fill="#E4E4E4" d="M55.74 57.45c-3.22,1 -1.98,5.87 1.43,5.07 3.37,-0.8 2.08,-6.17 -1.43,-5.07z"/>
   <path fill="#E4E4E4" d="M55.77 39.11c-3.4,1.07 -1.87,5.81 1.4,5.05 3.15,-0.74 2.14,-6.16 -1.4,-5.05z"/>
   <path fill="#010101" d="M63.12 96.68c1.1,-1.42 2.96,-3.22 4.3,-4.68 0.72,-0.78 1.54,-1.36 2.24,-2.17 1.15,-1.34 0.9,-1.17 2.87,-0.55l0 8.35c-2,0.14 -8.02,0.02 -9.41,-0.95zm18.01 0.66l-4.15 0.27 0 -7.97 4.33 -0.05c0.16,1.45 0.12,6.51 -0.18,7.75zm-21.88 -3.24c-0.9,-0.5 -2.79,-3.27 -3.23,-4.72 0.48,-0.68 8.17,-5.54 9.43,-6.33 0.45,0.38 1.71,2.2 2,2.79 -0.28,0.71 -6.89,7.35 -8.2,8.26zm-6.75 -14.68c1.51,-1.07 5.31,-2.47 7.32,-3.42 0.47,-0.22 3.38,-1.58 3.57,-1.48 0.58,0.29 0.68,3.34 0.62,4.13 -1.67,1.15 -3.44,2.26 -5.08,3.32 -1.41,0.9 -3.63,2.6 -4.99,3.19 -0.47,-1.7 -1.28,-3.87 -1.44,-5.74zm-8.11 -1.47c-0.17,-8.58 0.11,-17.63 0.21,-26.19 0.14,-12.42 -0.94,-14.85 8.54,-24.47 5.93,-6.03 11.52,-9.57 18.94,-13.8 1.3,-0.75 7.48,-3.99 8.8,-4.23 -1.51,3.14 -12.49,15.78 -14.57,24.11 -1.27,5.14 -1.25,12.41 -1.25,17.95 0,4.38 -0.55,9.74 1.46,13.09 0.52,0.86 1.6,2.16 1.78,2.84l-23.91 10.7zm-22.63 10.2c-0.21,-1.52 0.05,-30.86 0.05,-33.29 -0.01,-11.61 -0.56,-16.98 6.31,-27.37 3.93,-5.93 11.33,-13.02 17.65,-15.99 7.62,-3.58 19.82,-4.59 29.19,-4.59 -0.82,0.69 -4.22,2.34 -5.4,2.95 -4.31,2.24 -11.61,7.01 -15.05,10.18 -5.62,5.17 -12.5,11.32 -14.06,19.55 -0.75,3.93 -0.14,11.99 -0.31,16.49 -0.28,7.58 -0.04,15.32 -0.17,22.92 -0.02,1.15 0.13,1.04 -0.69,1.45l-17.52 7.7zm-5.76 -41.92l-0.06 42.26c0,3.21 2.88,5.88 6.36,5.55 1.98,-0.19 6.48,-2.61 8.5,-3.47 2.32,-0.99 15.47,-7.3 16.69,-7.35 1.59,6.23 1.47,3.64 2.94,7.46 1.17,3.02 3.76,7.58 6.73,8.75 2.52,0.99 1.34,1.22 3.07,2.24 2.96,1.74 8.68,1.64 12.3,1.64 1.03,0 1.63,-0.38 2.39,-0.34 0.89,0.04 1.41,0.34 2.69,0.31 1.56,-0.05 4.25,-0.08 5.61,-0.56 4.68,-1.67 3.8,-7.35 3.8,-13.12 0,-2.5 -1.61,-4.57 -3.46,-5.28 -2.45,-0.94 -5.41,-0.27 -7.92,-0.32 -3.23,-0.05 -3.75,-1.73 -4.98,-3.6 -1.05,-1.58 -0.81,-0.93 -1.03,-3.17 -0.13,-1.35 -0.44,-2.68 -0.46,-4.1 5.61,-1.88 6.13,-6.58 3.88,-9.5 -1.77,-2.3 -2,-2.17 -2.08,-5.89 -0.14,-6.73 -0.49,-15.69 0.75,-22.05 1.05,-5.39 7.78,-14.59 11.05,-19.03 1.13,-1.54 2.09,-2.99 3.14,-4.39 1.08,-1.44 2.49,-2.77 2.49,-5.2 0,-7.12 -7.85,-5.97 -13.66,-5.97 -7.48,0 -16.46,0.82 -23.46,2.42 -8.06,1.84 -11.9,4.81 -17.06,8.83 -7.36,5.74 -18.22,18.9 -18.22,33.88z"/>
   <path fill="#E4E4E4" d="M39.28 80.45c0.82,-0.41 0.67,-0.3 0.69,-1.45 0.13,-7.6 -0.11,-15.34 0.17,-22.92 0.17,-4.5 -0.44,-12.56 0.31,-16.49 1.56,-8.23 8.44,-14.38 14.06,-19.55 3.44,-3.17 10.74,-7.94 15.05,-10.18 1.18,-0.61 4.58,-2.26 5.4,-2.95 -9.37,0 -21.57,1.01 -29.19,4.59 -6.32,2.97 -13.72,10.06 -17.65,15.99 -6.87,10.39 -6.32,15.76 -6.31,27.37 0,2.43 -0.26,31.77 -0.05,33.29l17.52 -7.7z"/>
   <path fill="#939393" d="M55.44 53.42c8.66,-1.52 10.69,11.7 2.2,13.08 -8.72,1.43 -10.92,-11.55 -2.2,-13.08zm-0.27 -18.28c3.89,-0.89 7.1,1.81 7.79,4.95 0.9,4.05 -1.79,7.27 -4.96,7.99 -8.37,1.92 -11.79,-10.87 -2.83,-12.94zm-10.78 42.81l23.91 -10.7c-0.18,-0.68 -1.26,-1.98 -1.78,-2.84 -2.01,-3.35 -1.46,-8.71 -1.46,-13.09 0,-5.54 -0.02,-12.81 1.25,-17.95 2.08,-8.33 13.06,-20.97 14.57,-24.11 -1.32,0.24 -7.5,3.48 -8.8,4.23 -7.42,4.23 -13.01,7.77 -18.94,13.8 -9.48,9.62 -8.4,12.05 -8.54,24.47 -0.1,8.56 -0.38,17.61 -0.21,26.19z"/>
   <path fill="#010101" d="M55.74 57.45c3.51,-1.1 4.8,4.27 1.43,5.07 -3.41,0.8 -4.65,-4.07 -1.43,-5.07zm-0.3 -4.03c-8.72,1.53 -6.52,14.51 2.2,13.08 8.49,-1.38 6.46,-14.6 -2.2,-13.08z"/>
   <path fill="#010101" d="M55.77 39.11c3.54,-1.11 4.55,4.31 1.4,5.05 -3.27,0.76 -4.8,-3.98 -1.4,-5.05zm-0.6 -3.97c-8.96,2.07 -5.54,14.86 2.83,12.94 3.17,-0.72 5.86,-3.94 4.96,-7.99 -0.69,-3.14 -3.9,-5.84 -7.79,-4.95z"/>
   <path fill="#E4E4E4" d="M52.5 79.42c0.16,1.87 0.97,4.04 1.44,5.74 1.36,-0.59 3.58,-2.29 4.99,-3.19 1.64,-1.06 3.41,-2.17 5.08,-3.32 0.06,-0.79 -0.04,-3.84 -0.62,-4.13 -0.19,-0.1 -3.1,1.26 -3.57,1.48 -2.01,0.95 -5.81,2.35 -7.32,3.42z"/>
   <path fill="#E4E4E4" d="M59.25 94.1c1.31,-0.91 7.92,-7.55 8.2,-8.26 -0.29,-0.59 -1.55,-2.41 -2,-2.79 -1.26,0.79 -8.95,5.65 -9.43,6.33 0.44,1.45 2.33,4.22 3.23,4.72z"/>
   <path fill="#E4E4E4" d="M63.12 96.68c1.39,0.97 7.41,1.09 9.41,0.95l0 -8.35c-1.97,-0.62 -1.72,-0.79 -2.87,0.55 -0.7,0.81 -1.52,1.39 -2.24,2.17 -1.34,1.46 -3.2,3.26 -4.3,4.68z"/>
   <path fill="#E4E4E4" d="M81.13 97.34c0.3,-1.24 0.34,-6.3 0.18,-7.75l-4.33 0.05 0 7.97 4.15 -0.27z"/>
   <path fill="#E4E4E4" d="M55.74 57.45c-3.22,1 -1.98,5.87 1.43,5.07 3.37,-0.8 2.08,-6.17 -1.43,-5.07z"/>
   <path fill="#E4E4E4" d="M55.77 39.11c-3.4,1.07 -1.87,5.81 1.4,5.05 3.15,-0.74 2.14,-6.16 -1.4,-5.05z"/>
  </g>
  <rect fill="none" width="104.35" height="104.35"/>
 </g>
</svg>
